<?xml version="1.0" standalone="no"?>
<!DOCTYPE svg PUBLIC "-//W3C//DTD SVG 20010904//EN"
 "http://www.w3.org/TR/2001/REC-SVG-20010904/DTD/svg10.dtd">
<svg version="1.0" xmlns="http://www.w3.org/2000/svg"
 width="36.000000pt" height="22.000000pt" viewBox="0 0 36.000000 22.000000"
 preserveAspectRatio="xMidYMid meet">

<g transform="translate(0.000000,22.000000) scale(0.100000,-0.100000)"
fill="#000000" stroke="none">
<path d="M97 202 c-12 -13 -17 -37 -17 -79 0 -57 2 -63 35 -92 28 -24 40 -29
54 -22 12 7 21 7 28 0 6 -6 14 -5 23 6 7 8 21 15 31 15 29 0 22 25 -16 59 -38
33 -54 38 -72 20 -17 -17 -52 -1 -59 27 -5 19 0 32 22 55 25 27 26 29 7 29
-11 0 -27 -8 -36 -18z"/>
<path d="M162 187 c-18 -18 -32 -38 -32 -45 0 -20 25 -13 50 13 29 31 42 32
38 4 -2 -14 8 -29 30 -46 l32 -26 0 50 c0 86 -59 111 -118 50z"/>
<path d="M0 110 c0 -68 1 -70 25 -70 24 0 25 2 25 70 0 68 -1 70 -25 70 -24 0
-25 -2 -25 -70z"/>
<path d="M310 110 c0 -68 1 -70 25 -70 24 0 25 2 25 70 0 68 -1 70 -25 70 -24
0 -25 -2 -25 -70z"/>
</g>
</svg>
