<?xml version="1.0" standalone="no"?>
<!DOCTYPE svg PUBLIC "-//W3C//DTD SVG 20010904//EN"
 "http://www.w3.org/TR/2001/REC-SVG-20010904/DTD/svg10.dtd">
<svg version="1.0" xmlns="http://www.w3.org/2000/svg"
 width="32.000000pt" height="36.000000pt" viewBox="0 0 32.000000 36.000000"
 preserveAspectRatio="xMidYMid meet">

<g transform="translate(0.000000,36.000000) scale(0.100000,-0.100000)"
fill="#000000" stroke="none">
<path d="M120 349 c-40 -16 -80 -66 -80 -101 0 -43 66 -108 110 -108 64 0 130
59 130 116 0 19 -5 34 -10 34 -6 0 -23 13 -38 29 -30 33 -75 45 -112 30z"/>
<path d="M47 119 c-16 -9 -47 -65 -47 -83 0 -15 36 -36 60 -36 25 0 29 4 32
33 l3 32 65 0 65 0 3 -32 c3 -28 7 -33 31 -33 58 0 69 54 21 102 -24 24 -35
28 -53 22 -28 -9 -105 -10 -137 -1 -14 4 -33 2 -43 -4z"/>
<path d="M122 20 c0 -14 2 -19 5 -12 2 6 2 18 0 25 -3 6 -5 1 -5 -13z"/>
</g>
</svg>
