<?xml version="1.0" standalone="no"?>
<!DOCTYPE svg PUBLIC "-//W3C//DTD SVG 20010904//EN"
 "http://www.w3.org/TR/2001/REC-SVG-20010904/DTD/svg10.dtd">
<svg version="1.0" xmlns="http://www.w3.org/2000/svg"
 width="36.000000pt" height="36.000000pt" viewBox="0 0 36.000000 36.000000"
 preserveAspectRatio="xMidYMid meet">

<g transform="translate(0.000000,36.000000) scale(0.100000,-0.100000)"
fill="#000000" stroke="none">
<path d="M158 278 c-2 -59 -6 -73 -20 -76 -14 -3 -17 7 -20 60 -3 55 -5 63
-23 63 -18 0 -20 -8 -23 -87 l-3 -88 -29 0 c-16 0 -32 -5 -35 -10 -4 -6 20
-37 52 -69 61 -61 90 -72 155 -63 36 5 154 114 143 132 -3 5 -19 10 -35 10
l-29 0 -3 88 c-3 79 -5 87 -23 87 -18 0 -20 -8 -23 -63 -3 -53 -6 -63 -20 -60
-14 3 -18 17 -20 76 -3 63 -5 72 -22 72 -17 0 -19 -9 -22 -72z"/>
</g>
</svg>
