<?xml version="1.0" standalone="no"?>
<!DOCTYPE svg PUBLIC "-//W3C//DTD SVG 20010904//EN"
 "http://www.w3.org/TR/2001/REC-SVG-20010904/DTD/svg10.dtd">
<svg version="1.0" xmlns="http://www.w3.org/2000/svg"
 width="36.000000pt" height="36.000000pt" viewBox="0 0 36.000000 36.000000"
 preserveAspectRatio="xMidYMid meet">

<g transform="translate(0.000000,36.000000) scale(0.100000,-0.100000)"
fill="#000000" stroke="none">
<path d="M135 336 c-22 -33 -14 -53 29 -74 31 -15 45 -10 27 11 -6 8 -17 31
-24 53 l-14 38 -18 -28z"/>
<path d="M36 314 c-21 -55 1 -142 51 -195 l24 -27 -50 -12 c-74 -17 -65 -46
22 -71 25 -7 35 -4 59 16 21 17 42 25 69 25 46 0 93 21 105 47 4 10 11 54 14
98 3 44 10 88 14 98 7 15 2 17 -37 17 -55 0 -77 -19 -77 -66 0 -32 -2 -34 -27
-28 -47 11 -111 53 -130 84 -20 34 -28 37 -37 14z"/>
</g>
</svg>
