<?xml version="1.0" encoding="utf-8"?>
<svg version="1.0" width="700.000000pt" height="583.000000pt" viewBox="0 0 700.000000 583.000000" preserveAspectRatio="xMidYMid meet" xmlns="http://www.w3.org/2000/svg">
  <g transform="translate(0.000000,583.000000) scale(0.100000,-0.100000)" fill="#000000" stroke="none">
    <path d="M1784 5810 c-502 -70 -794 -602 -585 -1065 55 -122 144 -224 275 -316 37 -27 103 -81 145 -121 176 -167 461 -447 461 -454 0 -4 -18 -35 -39 -68 -101 -160 -191 -385 -230 -576 -42 -200 -43 -498 -2 -691 68 -325 221 -619 443 -853 l87 -92 -88 -120 c-374 -508 -585 -793 -601 -814 l-20 -24 0 89 c0 124 -21 214 -76 324 -108 219 -325 364 -576 387 -208 18 -456 -87 -588 -249 -61 -74 -124 -198 -146 -287 -25 -95 -22 -245 5 -345 66 -243 264 -437 511 -502 43 -11 101 -16 175 -16 95 1 123 5 207 32 187 61 327 183 419 366 28 55 100 167 162 250 317 429 579 784 612 832 17 24 34 43 39 43 4 0 29 -18 55 -39 137 -115 369 -241 551 -300 379 -123 798 -115 1153 21 43 16 80 28 81 26 7 -9 103 -195 109 -211 6 -16 4 -16 -31 -1 -133 58 -229 74 -334 55 -194 -34 -348 -156 -424 -338 -26 -63 -28 -78 -28 -193 0 -108 3 -133 23 -185 103 -261 370 -403 640 -340 235 56 412 283 411 529 0 104 -53 255 -115 328 -40 47 -214 373 -204 381 2 2 36 20 75 39 233 117 480 334 632 556 35 51 66 92 70 92 3 0 240 -30 527 -66 507 -64 521 -66 567 -95 268 -171 636 -48 749 250 106 281 -49 588 -340 675 -98 29 -236 20 -336 -21 -293 -122 -405 -486 -230 -750 41 -61 43 -75 13 -68 -13 2 -225 30 -473 61 -247 31 -452 58 -454 60 -2 2 12 34 31 71 210 404 244 907 92 1351 l-36 105 29 27 c129 123 327 313 419 403 107 103 115 109 175 123 83 19 229 91 301 148 122 97 219 248 258 402 27 103 27 271 1 370 -60 231 -226 422 -446 513 -473 197 -1008 -136 -1042 -649 -12 -184 41 -356 158 -512 57 -76 181 -176 274 -219 84 -40 206 -69 287 -69 37 0 68 -4 68 -8 0 -9 -484 -475 -498 -480 -4 -1 -23 28 -41 65 -156 318 -441 603 -768 768 -422 213 -902 250 -1348 103 -134 -44 -338 -148 -461 -235 -106 -75 -279 -237 -361 -338 l-41 -50 -158 152 c-88 83 -188 182 -224 218 l-65 67 35 -6 c19 -3 89 -9 155 -12 103 -6 133 -3 204 15 197 49 351 158 460 326 148 226 161 514 35 755 -145 278 -462 443 -770 400z m206 -101 c200 -32 385 -167 478 -348 55 -109 76 -206 70 -335 -11 -223 -128 -415 -323 -530 -114 -66 -211 -89 -355 -84 -183 7 -312 62 -439 188 -76 76 -122 148 -159 252 -34 97 -42 244 -17 353 74 335 406 559 745 504z m3803 -262 c218 -70 384 -245 443 -467 23 -87 23 -234 -1 -320 -51 -183 -178 -341 -335 -418 -112 -55 -185 -72 -300 -73 -182 0 -338 63 -462 187 -142 142 -208 317 -195 515 15 228 152 431 359 534 51 25 125 52 163 60 98 20 230 13 328 -18z m-1973 -960 c409 -76 776 -301 1023 -626 155 -204 254 -418 308 -669 26 -124 37 -407 20 -537 -46 -352 -199 -674 -438 -926 -414 -435 -1011 -612 -1593 -473 -531 126 -971 511 -1159 1015 -82 219 -106 357 -105 599 1 159 5 203 27 311 93 445 337 807 710 1056 214 142 468 234 737 267 77 9 388 -2 470 -17z m2753 -1879 c73 -35 156 -113 195 -186 109 -205 27 -454 -184 -559 -282 -139 -613 80 -591 391 11 170 102 294 264 362 51 22 70 24 158 21 83 -2 110 -7 158 -29z m-5463 -1318 c100 -34 169 -77 245 -154 235 -236 236 -605 2 -840 -125 -125 -258 -181 -432 -180 -536 1 -801 643 -424 1024 78 79 191 141 299 165 89 20 226 13 310 -15z m3035 -305 c133 -35 234 -119 294 -244 34 -73 36 -80 35 -181 0 -121 -19 -182 -82 -265 -81 -106 -191 -165 -328 -173 -185 -11 -347 86 -427 255 -30 64 -32 74 -32 183 0 110 2 119 32 180 40 82 88 139 155 182 113 73 231 94 353 63z"/>
    <path d="M1810 5311 c-70 -22 -112 -44 -176 -92 -37 -27 -75 -44 -135 -59 -117 -29 -135 -37 -165 -77 -21 -28 -28 -50 -32 -104 -6 -88 9 -109 77 -109 l46 0 0 38 c0 50 27 90 73 109 75 31 162 -28 162 -109 l0 -41 92 7 c50 3 158 6 240 6 l148 0 0 34 c0 71 84 129 154 106 43 -14 65 -38 80 -91 l13 -43 33 32 c30 30 32 37 27 80 -13 110 -27 176 -38 183 -33 20 -92 76 -99 95 -18 46 -386 72 -500 35z"/>
    <path d="M1492 4990 c-85 -52 -50 -180 50 -180 105 0 138 146 43 186 -45 18 -54 18 -93 -6z"/>
    <path d="M2224 5001 c-65 -28 -84 -113 -35 -162 49 -49 125 -38 157 23 40 78 -42 172 -122 139z"/>
    <path d="M5518 5277 c-128 -36 -207 -144 -208 -283 0 -64 4 -80 46 -164 25 -52 51 -119 58 -150 l13 -55 163 -3 c90 -1 167 1 172 6 4 4 15 34 23 65 8 31 34 94 57 139 40 77 43 89 43 163 0 67 -5 88 -27 131 -64 122 -210 187 -340 151z"/>
    <path d="M5430 4575 c-10 -12 -10 -18 0 -30 11 -13 39 -15 174 -13 l161 3 0 25 0 25 -161 3 c-135 2 -163 0 -174 -13z"/>
    <path d="M5433 4489 c-8 -8 -9 -18 -2 -31 9 -16 24 -18 162 -18 84 0 158 4 165 9 8 5 12 17 10 27 -3 18 -16 19 -163 22 -113 2 -164 -1 -172 -9z"/>
    <path d="M5480 4402 c0 -5 8 -16 18 -25 23 -21 181 -24 200 -5 32 32 14 38 -103 38 -63 0 -115 -4 -115 -8z"/>
    <path d="M3614 4011 c-195 -53 -338 -183 -443 -404 -18 -38 -36 -67 -39 -65 -4 2 -37 18 -74 37 -244 122 -528 -49 -532 -320 l-1 -75 -50 -12 c-290 -68 -489 -380 -431 -677 43 -220 218 -406 431 -460 89 -22 2022 -23 2108 0 398 103 566 582 322 914 -72 99 -202 191 -311 220 l-41 11 -6 117 c-18 352 -199 606 -502 703 -102 33 -330 38 -431 11z m-894 -1081 l0 -210 -35 0 -35 0 0 210 0 210 35 0 35 0 0 -210z m159 90 c19 -66 37 -120 40 -120 3 0 5 54 3 120 l-3 120 35 0 36 0 0 -210 0 -210 -34 0 -34 0 -40 118 -40 117 -1 -117 -1 -118 -35 0 -35 0 0 210 0 210 38 0 37 0 34 -120z m361 90 c0 -28 -3 -30 -35 -30 l-35 0 0 -180 0 -180 -30 0 -30 0 0 180 0 180 -35 0 c-32 0 -35 2 -35 30 l0 30 100 0 100 0 0 -30z m220 0 c0 -30 -1 -30 -55 -30 l-55 0 0 -60 0 -60 40 0 c38 0 40 -2 40 -30 0 -28 -2 -30 -40 -30 l-40 0 0 -60 0 -60 55 0 c54 0 55 0 55 -30 l0 -30 -90 0 -90 0 0 210 0 210 90 0 90 0 0 -30z m217 7 c25 -25 31 -143 8 -190 -16 -34 -15 -39 4 -109 27 -97 27 -98 -12 -98 l-34 0 -18 80 c-15 64 -22 80 -37 80 -16 0 -18 -9 -18 -80 l0 -80 -35 0 -35 0 0 211 0 211 80 -4 c59 -2 84 -8 97 -21z m202 -99 c19 -65 36 -116 38 -115 1 2 3 56 4 120 l1 117 34 0 34 0 0 -210 0 -210 -34 0 -34 0 -40 118 -40 117 -1 -117 -1 -118 -35 0 -35 0 0 211 0 210 37 -3 38 -3 34 -117z m341 92 c0 -30 -1 -30 -55 -30 l-55 0 0 -60 0 -60 40 0 c38 0 40 -2 40 -30 0 -28 -2 -30 -40 -30 l-40 0 0 -60 0 -60 55 0 c54 0 55 0 55 -30 l0 -30 -90 0 -90 0 0 210 0 210 90 0 90 0 0 -30z m240 0 c0 -28 -3 -30 -35 -30 l-35 0 0 -180 0 -180 -30 0 -30 0 0 180 0 180 -35 0 c-32 0 -35 2 -35 30 l0 30 100 0 100 0 0 -30z m-1669 -519 l29 -29 0 -152 0 -152 -29 -29 c-47 -47 -132 -33 -159 26 -17 37 -15 282 2 314 32 57 111 68 157 22z m259 -1 c0 -30 -1 -30 -55 -30 l-55 0 0 -60 0 -60 40 0 c38 0 40 -2 40 -30 0 -28 -2 -30 -40 -30 l-40 0 0 -90 0 -90 -35 0 -35 0 0 210 0 210 90 0 90 0 0 -30z m290 0 c0 -28 -3 -30 -35 -30 l-35 0 0 -180 0 -180 -30 0 -30 0 0 180 0 180 -35 0 c-32 0 -35 2 -35 30 l0 30 100 0 100 0 0 -30z m105 -63 l0 -87 38 0 37 0 0 91 0 90 33 -3 32 -3 0 -205 0 -205 -32 -3 -33 -3 0 90 0 91 -37 0 -38 0 0 -87 0 -88 -32 -3 -33 -3 0 211 0 211 33 -3 32 -3 0 -88z m265 -117 l0 -210 -35 0 -35 0 0 210 0 210 35 0 35 0 0 -210z m159 90 c19 -66 37 -117 40 -114 3 3 6 56 6 117 l0 112 33 3 32 3 0 -210 0 -211 -34 0 -34 0 -40 118 -40 117 -1 -117 -1 -118 -35 0 -35 0 0 210 0 210 38 0 37 0 34 -120z m332 91 c24 -24 29 -38 29 -76 0 -46 0 -46 -32 -43 -30 3 -33 6 -36 40 -3 39 -33 61 -55 39 -11 -11 -13 -263 -2 -281 9 -14 45 -12 50 3 2 6 6 32 8 56 4 36 2 44 -14 48 -13 4 -19 14 -19 34 0 28 2 29 50 29 l50 0 0 -91 c0 -87 -1 -92 -29 -120 -47 -47 -132 -33 -159 26 -15 33 -16 275 -1 308 27 60 112 75 160 28z m240 19 c22 -13 52 -67 44 -80 -10 -16 -65 -12 -65 4 0 16 -34 31 -50 21 -5 -3 -10 -22 -10 -41 0 -29 9 -43 59 -92 63 -61 77 -91 67 -147 -12 -65 -98 -98 -154 -59 -27 19 -55 71 -48 90 9 24 55 17 66 -10 11 -31 25 -39 50 -31 14 5 20 15 20 37 0 25 -13 45 -65 99 -61 63 -65 70 -65 114 0 38 5 52 29 76 31 31 83 39 122 19z" style="fill: rgb(0, 191, 255); stroke-width: 20px; stroke: rgb(0, 0, 0);"/>
    <path d="M3570 3010 c0 -68 1 -70 25 -70 30 0 45 26 45 77 0 44 -14 63 -47 63 -22 0 -23 -4 -23 -70z" style="fill: rgb(0, 191, 255); stroke: rgb(0, 0, 0); stroke-width: 20px;"/>
    <path d="M2693 2546 c-4 -8 -6 -74 -3 -148 4 -119 7 -133 24 -136 10 -2 22 0 27 5 10 10 15 265 5 281 -10 16 -43 15 -53 -2z" style="fill: rgb(0, 191, 255); stroke: rgb(0, 0, 0); stroke-width: 20px;"/>
    <path d="M6294 2500 c-27 -11 -63 -34 -80 -51 l-29 -31 30 7 c17 4 41 10 55 14 14 5 40 6 59 3 21 -3 36 0 41 8 4 7 25 14 45 16 21 2 46 11 56 20 10 9 23 13 31 9 10 -6 10 -5 1 5 -21 23 -151 23 -209 0z m161 0 c7 -11 -35 -31 -49 -22 -5 2 2 11 15 18 29 16 27 16 34 4z m-95 -19 c0 -11 -39 -21 -45 -11 -2 4 -2 10 2 14 10 9 43 7 43 -3z"/>
    <path d="M6470 2451 c0 -5 7 -14 15 -21 8 -7 15 -16 15 -21 0 -14 -17 -11 -34 6 -14 14 -17 14 -36 -5 -24 -24 -25 -30 -5 -30 8 0 15 5 15 11 0 21 60 1 85 -28 31 -36 31 -39 -6 -47 -17 -3 -46 -22 -63 -41 -18 -19 -42 -35 -54 -35 -12 0 -22 -5 -22 -11 0 -5 4 -8 9 -4 6 3 15 -3 20 -13 7 -13 26 -21 61 -25 52 -6 130 -56 130 -84 0 -14 -39 -60 -100 -119 -40 -38 -38 -40 16 -18 66 28 111 71 145 139 28 58 31 71 27 137 -5 94 -30 148 -67 148 -15 0 -32 -5 -38 -11 -15 -15 -29 -5 -59 42 -22 35 -54 53 -54 30z"/>
    <path d="M6134 2338 c-25 -56 -24 -159 3 -219 44 -98 137 -165 245 -176 l55 -5 6 52 c4 36 2 63 -9 89 -8 19 -12 46 -9 58 6 24 -25 53 -58 53 -9 0 -20 7 -23 15 -4 8 -10 13 -14 10 -12 -7 -50 49 -50 74 0 11 -5 32 -12 47 -11 23 -16 26 -50 21 -25 -3 -43 0 -52 8 -11 12 -16 7 -32 -27z"/>
    <path d="M654 1140 c-11 -4 -33 -22 -47 -40 -21 -25 -27 -42 -27 -82 0 -44 4 -54 34 -84 19 -19 45 -35 57 -35 13 -1 33 -2 44 -3 17 -1 21 -9 23 -48 3 -46 5 -48 33 -48 28 0 29 2 29 45 l0 45 88 1 c48 1 97 2 110 3 l23 1 2 -223 2 -222 -210 0 c-116 0 -216 -4 -223 -9 -9 -5 -12 -25 -10 -62 l3 -54 345 0 345 0 3 41 c3 34 -68 474 -84 527 -3 10 5 29 20 47 36 43 43 91 19 137 -35 68 -56 73 -323 72 -129 0 -244 -4 -256 -9z m518 -577 c35 -31 12 -85 -36 -85 -35 0 -48 13 -48 48 0 47 49 69 84 37z"/>
    <path d="M628 759 c-10 -5 -18 -19 -18 -29 0 -15 -7 -20 -29 -20 -63 0 -98 -66 -61 -113 17 -21 30 -27 60 -27 37 0 40 -3 59 -45 l20 -45 110 0 110 0 19 53 c11 28 23 86 26 128 10 108 8 109 -152 109 -70 0 -135 -5 -144 -11z m-18 -93 c0 -13 3 -38 6 -55 6 -29 5 -31 -23 -31 -37 0 -73 25 -73 51 0 39 19 59 55 59 30 0 35 -3 35 -24z"/>
    <path d="M3866 864 c-14 -13 -16 -55 -16 -309 0 -294 0 -295 23 -309 17 -11 57 -14 175 -13 139 2 155 4 168 21 11 16 14 75 14 306 0 265 -1 288 -18 303 -27 24 -322 25 -346 1z m197 -21 c-13 -2 -33 -2 -45 0 -13 2 -3 4 22 4 25 0 35 -2 23 -4z m117 -285 l0 -243 -143 3 -143 3 2 32 c1 18 2 125 3 240 l1 207 140 0 140 0 0 -242z m-105 -278 c0 -18 -52 -27 -67 -12 -17 17 2 33 35 30 20 -2 32 -8 32 -18z"/>
    <path d="M3007 5594 c-4 -4 -7 -25 -7 -46 l0 -38 91 0 90 0 -3 43 -3 42 -80 3 c-45 1 -84 0 -88 -4z"/>
    <path d="M2942 5468 c-7 -7 -12 -27 -12 -44 0 -18 -4 -36 -10 -39 -5 -3 -10 -17 -10 -31 0 -13 5 -24 10 -24 6 0 10 -9 10 -19 0 -11 -4 -23 -10 -26 -5 -3 -10 -17 -10 -31 0 -13 5 -24 10 -24 6 0 10 -15 10 -33 0 -58 20 -67 154 -67 111 0 118 1 141 25 19 18 25 35 25 70 0 38 3 45 20 45 17 0 20 7 20 40 0 33 -3 40 -20 40 -17 0 -20 7 -20 43 0 23 -7 53 -16 65 -14 21 -22 22 -148 22 -89 0 -136 -4 -144 -12z m248 -158 l0 -120 -105 0 -105 0 0 120 0 120 105 0 105 0 0 -120z"/>
    <path d="M3099 5330 c-19 -33 -26 -39 -46 -34 -16 4 -23 2 -23 -8 0 -17 31 -48 48 -48 13 0 72 97 72 118 0 26 -30 10 -51 -28z"/>
    <path d="M3789 5266 c-159 -99 -215 -139 -217 -155 -4 -25 14 -51 34 -51 8 0 105 56 215 125 l202 125 196 -122 c108 -67 207 -122 220 -123 31 0 50 28 35 53 -15 24 -424 281 -450 281 -11 1 -117 -59 -235 -133z"/>
    <path d="M3880 5149 c-69 -43 -137 -88 -152 -99 l-28 -21 0 -159 c0 -131 3 -161 16 -174 19 -20 193 -23 212 -4 8 8 12 45 12 101 0 85 1 90 30 119 26 25 36 29 63 24 54 -10 67 -36 67 -136 0 -115 5 -120 127 -120 65 0 94 4 102 14 8 9 11 66 9 182 l-3 168 -150 93 c-82 51 -157 93 -165 92 -8 0 -71 -36 -140 -80z"/>
    <path d="M3002 5068 l3 -43 85 0 85 0 3 43 3 42 -91 0 -91 0 3 -42z"/>
    <path d="M573 4163 c-10 -3 -13 -73 -13 -298 0 -281 1 -295 19 -305 13 -6 184 -10 486 -10 302 0 473 4 486 10 18 10 19 24 19 298 0 211 -3 291 -12 300 -9 9 -131 12 -493 11 -264 0 -486 -3 -492 -6z m665 -300 l-3 -238 -28 -3 c-25 -3 -28 -1 -22 17 6 20 2 21 -51 21 l-58 0 30 33 c46 49 52 59 59 100 l7 37 -235 0 c-130 0 -238 -4 -241 -8 -11 -18 17 -85 51 -123 l35 -39 -51 0 c-44 0 -51 -3 -51 -20 0 -15 -7 -20 -25 -20 l-25 0 0 240 0 240 305 0 305 0 -2 -237z m122 147 c0 -27 -3 -30 -30 -30 -27 0 -30 3 -30 30 0 27 3 30 30 30 27 0 30 -3 30 -30z m70 0 c0 -27 -3 -30 -30 -30 -27 0 -30 3 -30 30 0 27 3 30 30 30 27 0 30 -3 30 -30z m78 -2 c3 -25 0 -28 -27 -28 -28 0 -31 3 -31 31 0 27 3 30 28 27 21 -2 28 -9 30 -30z m-148 -68 c0 -27 -3 -30 -30 -30 -27 0 -30 3 -30 30 0 27 3 30 30 30 27 0 30 -3 30 -30z m70 0 c0 -27 -3 -30 -30 -30 -25 0 -30 4 -30 23 0 30 7 37 37 37 19 0 23 -5 23 -30z m78 -2 c3 -25 0 -28 -27 -28 -28 0 -31 3 -31 31 0 27 3 30 28 27 21 -2 28 -9 30 -30z m-150 -70 c3 -25 0 -28 -27 -28 -28 0 -31 3 -31 31 0 27 3 30 28 27 21 -2 28 -9 30 -30z m72 0 c0 -24 -4 -28 -30 -28 -25 0 -30 4 -30 23 0 30 7 37 36 35 19 -2 24 -8 24 -30z m78 0 c3 -25 0 -28 -27 -28 -28 0 -31 3 -31 31 0 27 3 30 28 27 21 -2 28 -9 30 -30z m-70 -114 c34 -23 27 -83 -10 -104 -25 -13 -31 -13 -55 0 -37 20 -43 70 -14 99 25 25 49 27 79 5z"/>
    <path d="M5540 3300 l0 -270 405 0 405 0 0 270 0 270 -405 0 -405 0 0 -270z m738 3 l-3 -198 -330 0 -330 0 -3 198 -2 197 335 0 335 0 -2 -197z"/>
    <path d="M228 3288 c-9 -7 -23 -39 -31 -70 l-15 -58 318 0 c175 0 325 -3 333 -6 14 -5 14 1 1 57 -8 35 -20 69 -26 76 -15 18 -556 19 -580 1z m416 -40 c23 -38 -35 -78 -61 -42 -17 23 -16 29 3 49 20 19 43 16 58 -7z m110 16 c10 -4 16 -18 16 -35 0 -22 -6 -30 -24 -35 -33 -8 -46 2 -46 36 0 34 21 47 54 34z m-226 -16 c-7 -20 -68 -23 -68 -4 0 12 10 16 36 16 24 0 34 -4 32 -12z m2 -53 c0 -10 -11 -15 -35 -15 -24 0 -35 5 -35 15 0 10 11 15 35 15 24 0 35 -5 35 -15z"/>
    <path d="M172 3108 c-9 -9 -12 -80 -12 -279 0 -230 2 -270 16 -283 13 -14 58 -16 333 -16 233 0 320 3 329 12 9 9 12 87 12 293 -1 254 -2 277 -16 253 l-15 -28 -298 0 c-271 0 -299 2 -313 18 -9 9 -17 23 -19 30 -3 10 -7 10 -17 0z m416 -124 c174 -72 174 -316 0 -388 -135 -57 -287 47 -288 197 0 143 155 247 288 191z"/>
    <path d="M445 2946 c-17 -7 -45 -29 -62 -49 -57 -65 -56 -151 3 -217 20 -21 51 -44 70 -50 115 -38 237 63 221 182 -14 108 -134 177 -232 134z m95 -46 c0 -11 -6 -20 -14 -20 -18 0 -29 16 -21 30 11 18 35 11 35 -10z m70 -40 c0 -11 -6 -20 -14 -20 -18 0 -29 16 -21 30 11 18 35 11 35 -10z m-50 -25 c6 -8 9 -19 5 -25 -9 -14 38 -13 53 2 36 36 23 -57 -14 -102 -14 -16 -43 -35 -64 -41 -33 -10 -44 -9 -83 10 -46 22 -83 79 -75 117 4 24 69 47 101 35 15 -6 26 -4 35 5 16 18 27 18 42 -1z"/>
    <path d="M230 3105 c11 -13 53 -15 293 -13 213 2 281 6 285 16 3 9 -60 12 -293 12 -265 0 -296 -2 -285 -15z"/>
    <path d="M5520 2950 l0 -40 423 2 422 3 0 35 0 35 -422 3 -423 2 0 -40z m778 -3 c2 -10 -3 -17 -12 -17 -18 0 -29 16 -21 31 9 14 29 6 33 -14z"/>
    <path d="M922 2378 c-17 -17 -17 -399 0 -416 7 -7 37 -13 68 -13 l55 -2 -54 -6 c-37 -5 -59 -13 -71 -28 -16 -20 -61 -252 -60 -315 0 -62 -28 -58 435 -58 469 0 435 -5 435 67 0 34 -35 259 -46 295 -6 21 -27 30 -94 38 l-55 7 62 2 c94 2 93 -1 93 221 0 158 -3 191 -16 204 -13 14 -62 16 -378 16 -268 0 -365 -3 -374 -12z m718 -203 l0 -155 -337 0 -338 0 0 155 0 155 338 0 337 0 0 -155z m20 -287 c5 -13 18 -81 30 -152 17 -104 18 -131 8 -137 -17 -11 -789 -11 -805 -1 -10 6 -7 39 12 151 14 79 28 147 31 152 3 5 165 9 360 9 l354 0 10 -22z"/>
    <path d="M1014 1872 c-12 -8 -36 -141 -28 -154 3 -4 143 -8 311 -8 l306 0 -8 73 c-3 39 -11 78 -17 85 -8 9 -77 12 -282 12 -149 0 -276 -4 -282 -8z"/>
    <path d="M1194 1666 c-3 -8 -4 -23 -2 -33 3 -16 15 -18 103 -18 l100 0 3 33 c2 18 -1 32 -7 32 -6 0 -11 -11 -11 -25 0 -26 0 -26 -82 -23 -79 3 -83 4 -82 26 1 25 -14 30 -22 8z"/>
    <path d="M5147 1493 c-4 -3 -7 -60 -7 -125 l0 -118 285 0 286 0 -3 123 -3 122 -276 3 c-151 1 -278 -1 -282 -5z m97 -59 c3 -9 6 -37 6 -64 0 -48 -18 -78 -40 -65 -11 7 -14 127 -3 138 11 12 31 7 37 -9z"/>
    <path d="M5142 863 l3 -308 33 -3 c24 -2 35 -10 42 -28 13 -34 49 -30 63 8 5 14 24 16 144 16 130 -1 138 -2 148 -22 16 -31 43 -32 55 -2 6 18 15 24 30 21 51 -10 50 -15 50 316 l0 309 -285 0 -285 0 2 -307z m102 211 c9 -23 7 -97 -3 -113 -5 -8 -16 -11 -25 -8 -12 5 -16 20 -16 65 0 32 3 62 7 65 11 12 31 7 37 -9z"/>
    <path d="M2613 1025 c-39 -7 -100 -27 -135 -45 -61 -31 -147 -89 -148 -100 0 -3 22 -28 49 -54 l50 -49 33 28 c18 16 58 40 88 54 48 22 69 25 165 26 100 0 115 -3 170 -28 32 -15 74 -39 92 -53 l34 -25 44 47 c25 26 45 51 45 56 0 14 -83 70 -155 103 -64 30 -179 56 -237 54 -13 0 -55 -7 -95 -14z"/>
    <path d="M2642 801 c-46 -12 -118 -50 -139 -73 -16 -18 -15 -21 30 -65 l46 -47 42 24 c58 32 142 32 193 0 l38 -23 49 49 c45 44 47 49 33 65 -9 10 -40 29 -69 44 -59 29 -164 41 -223 26z"/>
    <path d="M2690 583 c-24 -8 -50 -46 -50 -71 0 -29 51 -82 79 -82 11 0 32 11 47 23 64 56 4 159 -76 130z"/>
  </g>
</svg>