<svg width="826" height="179" viewBox="0 0 826 179" fill="none" xmlns="http://www.w3.org/2000/svg">
<g filter="url(#filter0_d_326_85)">
<path d="M6.4 85V27.4H16.04V85H6.4ZM25.6219 85V27.4H35.3819L62.1019 68V27.4H71.8619V85H62.1019L35.3819 44.4V85H25.6219ZM94.4837 85V36.44H75.8437V27.4H122.764V36.44H104.124V85H94.4837ZM126.759 85V27.4H163.959V36.44H136.399V50.64H159.159V59.68H136.399V75.96H163.959V85H126.759ZM171.156 85V27.4H194.956C195.516 27.4 196.236 27.4267 197.116 27.48C197.996 27.5067 198.81 27.5867 199.556 27.72C202.89 28.2267 205.636 29.3333 207.796 31.04C209.983 32.7467 211.596 34.9067 212.636 37.52C213.703 40.1067 214.236 42.9867 214.236 46.16C214.236 50.8533 213.05 54.8933 210.676 58.28C208.303 61.64 204.663 63.72 199.756 64.52L195.636 64.88H180.796V85H171.156ZM204.236 85L192.876 61.56L202.676 59.4L215.156 85H204.236ZM180.796 55.88H194.556C195.09 55.88 195.69 55.8533 196.356 55.8C197.023 55.7467 197.636 55.64 198.196 55.48C199.796 55.08 201.05 54.3733 201.956 53.36C202.89 52.3467 203.543 51.2 203.916 49.92C204.316 48.64 204.516 47.3867 204.516 46.16C204.516 44.9333 204.316 43.68 203.916 42.4C203.543 41.0933 202.89 39.9333 201.956 38.92C201.05 37.9067 199.796 37.2 198.196 36.8C197.636 36.64 197.023 36.5467 196.356 36.52C195.69 36.4667 195.09 36.44 194.556 36.44H180.796V55.88ZM221.569 85V27.4H231.329L258.049 68V27.4H267.809V85H258.049L231.329 44.4V85H221.569ZM276.591 85V27.4H313.791V36.44H286.231V50.64H308.991V59.68H286.231V75.96H313.791V85H276.591ZM334.828 85V36.44H316.188V27.4H363.108V36.44H344.468V85H334.828ZM378.297 85V27.4H396.657C397.137 27.4 398.084 27.4133 399.497 27.44C400.937 27.4667 402.324 27.56 403.657 27.72C408.217 28.3067 412.07 29.9333 415.217 32.6C418.39 35.24 420.79 38.6133 422.417 42.72C424.044 46.8267 424.857 51.32 424.857 56.2C424.857 61.08 424.044 65.5733 422.417 69.68C420.79 73.7867 418.39 77.1733 415.217 79.84C412.07 82.48 408.217 84.0933 403.657 84.68C402.35 84.84 400.977 84.9333 399.537 84.96C398.097 84.9867 397.137 85 396.657 85H378.297ZM388.097 75.92H396.657C397.457 75.92 398.47 75.8933 399.697 75.84C400.95 75.7867 402.057 75.6667 403.017 75.48C405.737 74.9733 407.95 73.76 409.657 71.84C411.364 69.92 412.617 67.5867 413.417 64.84C414.244 62.0933 414.657 59.2133 414.657 56.2C414.657 53.08 414.244 50.1467 413.417 47.4C412.59 44.6533 411.31 42.3467 409.577 40.48C407.87 38.6133 405.684 37.4267 403.017 36.92C402.057 36.7067 400.95 36.5867 399.697 36.56C398.47 36.5067 397.457 36.48 396.657 36.48H388.097V75.92ZM426.35 85L444.51 27.4H458.63L476.79 85H466.87L450.39 33.32H452.55L436.27 85H426.35ZM436.47 72.52V63.52H466.71V72.52H436.47ZM501.379 86.2C497.166 86.2 493.366 85.4667 489.979 84C486.619 82.5333 483.846 80.44 481.659 77.72C479.499 74.9733 478.126 71.72 477.539 67.96L487.539 66.44C488.393 69.8533 490.139 72.4933 492.779 74.36C495.446 76.2267 498.513 77.16 501.979 77.16C504.033 77.16 505.966 76.84 507.779 76.2C509.593 75.56 511.059 74.6267 512.179 73.4C513.326 72.1733 513.899 70.6667 513.899 68.88C513.899 68.08 513.766 67.3467 513.499 66.68C513.233 65.9867 512.833 65.3733 512.299 64.84C511.793 64.3067 511.126 63.8267 510.299 63.4C509.499 62.9467 508.566 62.56 507.499 62.24L492.619 57.84C491.339 57.4667 489.953 56.9733 488.459 56.36C486.993 55.72 485.593 54.8533 484.259 53.76C482.953 52.64 481.873 51.2267 481.019 49.52C480.193 47.7867 479.779 45.6533 479.779 43.12C479.779 39.4133 480.713 36.3067 482.579 33.8C484.473 31.2667 487.006 29.3733 490.179 28.12C493.379 26.8667 496.926 26.2533 500.819 26.28C504.766 26.3067 508.286 26.9867 511.379 28.32C514.473 29.6267 517.059 31.5333 519.139 34.04C521.219 36.5467 522.686 39.5733 523.539 43.12L513.179 44.92C512.753 42.8933 511.926 41.1733 510.699 39.76C509.499 38.32 508.019 37.2267 506.259 36.48C504.526 35.7333 502.673 35.3333 500.699 35.28C498.779 35.2533 496.993 35.5467 495.339 36.16C493.713 36.7467 492.393 37.6 491.379 38.72C490.393 39.84 489.899 41.1467 489.899 42.64C489.899 44.0533 490.326 45.2133 491.179 46.12C492.033 47 493.086 47.7067 494.339 48.24C495.619 48.7467 496.913 49.1733 498.219 49.52L508.539 52.4C509.953 52.7733 511.539 53.28 513.299 53.92C515.059 54.56 516.753 55.4533 518.379 56.6C520.006 57.7467 521.339 59.2533 522.379 61.12C523.446 62.9867 523.979 65.36 523.979 68.24C523.979 71.2267 523.353 73.8533 522.099 76.12C520.873 78.36 519.206 80.2267 517.099 81.72C514.993 83.2133 512.579 84.3333 509.859 85.08C507.166 85.8267 504.339 86.2 501.379 86.2ZM568.213 86.2C562.453 86.2 557.52 84.9467 553.413 82.44C549.306 79.9067 546.146 76.3867 543.933 71.88C541.746 67.3733 540.653 62.1467 540.653 56.2C540.653 50.2533 541.746 45.0267 543.933 40.52C546.146 36.0133 549.306 32.5067 553.413 30C557.52 27.4667 562.453 26.2 568.213 26.2C574.853 26.2 580.386 27.8667 584.813 31.2C589.24 34.5067 592.346 38.9733 594.133 44.6L584.413 47.28C583.293 43.52 581.386 40.5867 578.693 38.48C576 36.3467 572.506 35.28 568.213 35.28C564.346 35.28 561.12 36.1467 558.533 37.88C555.973 39.6133 554.04 42.0533 552.733 45.2C551.453 48.32 550.8 51.9867 550.773 56.2C550.773 60.4133 551.413 64.0933 552.693 67.24C554 70.36 555.946 72.7867 558.533 74.52C561.12 76.2533 564.346 77.12 568.213 77.12C572.506 77.12 576 76.0533 578.693 73.92C581.386 71.7867 583.293 68.8533 584.413 65.12L594.133 67.8C592.346 73.4267 589.24 77.9067 584.813 81.24C580.386 84.5467 574.853 86.2 568.213 86.2ZM624.876 86.2C619.116 86.2 614.182 84.9467 610.076 82.44C605.969 79.9067 602.809 76.3867 600.596 71.88C598.409 67.3733 597.316 62.1467 597.316 56.2C597.316 50.2533 598.409 45.0267 600.596 40.52C602.809 36.0133 605.969 32.5067 610.076 30C614.182 27.4667 619.116 26.2 624.876 26.2C630.636 26.2 635.569 27.4667 639.676 30C643.809 32.5067 646.969 36.0133 649.156 40.52C651.369 45.0267 652.476 50.2533 652.476 56.2C652.476 62.1467 651.369 67.3733 649.156 71.88C646.969 76.3867 643.809 79.9067 639.676 82.44C635.569 84.9467 630.636 86.2 624.876 86.2ZM624.876 77.12C628.742 77.1467 631.956 76.2933 634.516 74.56C637.102 72.8267 639.036 70.3867 640.316 67.24C641.622 64.0933 642.276 60.4133 642.276 56.2C642.276 51.9867 641.622 48.3333 640.316 45.24C639.036 42.12 637.102 39.6933 634.516 37.96C631.956 36.2267 628.742 35.3333 624.876 35.28C621.009 35.2533 617.796 36.1067 615.236 37.84C612.676 39.5733 610.742 42.0133 609.436 45.16C608.156 48.3067 607.516 51.9867 607.516 56.2C607.516 60.4133 608.156 64.08 609.436 67.2C610.716 70.2933 612.636 72.7067 615.196 74.44C617.782 76.1733 621.009 77.0667 624.876 77.12ZM658.838 85V27.4H668.478V85H658.838ZM699.379 86.2C695.166 86.2 691.366 85.4667 687.979 84C684.619 82.5333 681.846 80.44 679.659 77.72C677.499 74.9733 676.126 71.72 675.539 67.96L685.539 66.44C686.393 69.8533 688.139 72.4933 690.779 74.36C693.446 76.2267 696.513 77.16 699.979 77.16C702.033 77.16 703.966 76.84 705.779 76.2C707.593 75.56 709.059 74.6267 710.179 73.4C711.326 72.1733 711.899 70.6667 711.899 68.88C711.899 68.08 711.766 67.3467 711.499 66.68C711.233 65.9867 710.833 65.3733 710.299 64.84C709.793 64.3067 709.126 63.8267 708.299 63.4C707.499 62.9467 706.566 62.56 705.499 62.24L690.619 57.84C689.339 57.4667 687.953 56.9733 686.459 56.36C684.993 55.72 683.593 54.8533 682.259 53.76C680.953 52.64 679.873 51.2267 679.019 49.52C678.193 47.7867 677.779 45.6533 677.779 43.12C677.779 39.4133 678.713 36.3067 680.579 33.8C682.473 31.2667 685.006 29.3733 688.179 28.12C691.379 26.8667 694.926 26.2533 698.819 26.28C702.766 26.3067 706.286 26.9867 709.379 28.32C712.473 29.6267 715.059 31.5333 717.139 34.04C719.219 36.5467 720.686 39.5733 721.539 43.12L711.179 44.92C710.753 42.8933 709.926 41.1733 708.699 39.76C707.499 38.32 706.019 37.2267 704.259 36.48C702.526 35.7333 700.673 35.3333 698.699 35.28C696.779 35.2533 694.993 35.5467 693.339 36.16C691.713 36.7467 690.393 37.6 689.379 38.72C688.393 39.84 687.899 41.1467 687.899 42.64C687.899 44.0533 688.326 45.2133 689.179 46.12C690.033 47 691.086 47.7067 692.339 48.24C693.619 48.7467 694.913 49.1733 696.219 49.52L706.539 52.4C707.953 52.7733 709.539 53.28 711.299 53.92C713.059 54.56 714.753 55.4533 716.379 56.6C718.006 57.7467 719.339 59.2533 720.379 61.12C721.446 62.9867 721.979 65.36 721.979 68.24C721.979 71.2267 721.353 73.8533 720.099 76.12C718.873 78.36 717.206 80.2267 715.099 81.72C712.993 83.2133 710.579 84.3333 707.859 85.08C705.166 85.8267 702.339 86.2 699.379 86.2ZM724.238 85L742.398 27.4H756.518L774.678 85H764.758L748.278 33.32H750.438L734.158 85H724.238ZM734.358 72.52V63.52H764.598V72.52H734.358ZM799.267 86.2C795.054 86.2 791.254 85.4667 787.867 84C784.507 82.5333 781.734 80.44 779.547 77.72C777.387 74.9733 776.014 71.72 775.427 67.96L785.427 66.44C786.28 69.8533 788.027 72.4933 790.667 74.36C793.334 76.2267 796.4 77.16 799.867 77.16C801.92 77.16 803.854 76.84 805.667 76.2C807.48 75.56 808.947 74.6267 810.067 73.4C811.214 72.1733 811.787 70.6667 811.787 68.88C811.787 68.08 811.654 67.3467 811.387 66.68C811.12 65.9867 810.72 65.3733 810.187 64.84C809.68 64.3067 809.014 63.8267 808.187 63.4C807.387 62.9467 806.454 62.56 805.387 62.24L790.507 57.84C789.227 57.4667 787.84 56.9733 786.347 56.36C784.88 55.72 783.48 54.8533 782.147 53.76C780.84 52.64 779.76 51.2267 778.907 49.52C778.08 47.7867 777.667 45.6533 777.667 43.12C777.667 39.4133 778.6 36.3067 780.467 33.8C782.36 31.2667 784.894 29.3733 788.067 28.12C791.267 26.8667 794.814 26.2533 798.707 26.28C802.654 26.3067 806.174 26.9867 809.267 28.32C812.36 29.6267 814.947 31.5333 817.027 34.04C819.107 36.5467 820.574 39.5733 821.427 43.12L811.067 44.92C810.64 42.8933 809.814 41.1733 808.587 39.76C807.387 38.32 805.907 37.2267 804.147 36.48C802.414 35.7333 800.56 35.3333 798.587 35.28C796.667 35.2533 794.88 35.5467 793.227 36.16C791.6 36.7467 790.28 37.6 789.267 38.72C788.28 39.84 787.787 41.1467 787.787 42.64C787.787 44.0533 788.214 45.2133 789.067 46.12C789.92 47 790.974 47.7067 792.227 48.24C793.507 48.7467 794.8 49.1733 796.107 49.52L806.427 52.4C807.84 52.7733 809.427 53.28 811.187 53.92C812.947 54.56 814.64 55.4533 816.267 56.6C817.894 57.7467 819.227 59.2533 820.267 61.12C821.334 62.9867 821.867 65.36 821.867 68.24C821.867 71.2267 821.24 73.8533 819.987 76.12C818.76 78.36 817.094 80.2267 814.987 81.72C812.88 83.2133 810.467 84.3333 807.747 85.08C805.054 85.8267 802.227 86.2 799.267 86.2Z" fill="white"/>
</g>
<g filter="url(#filter1_d_326_85)">
<path d="M89.4 149L87.9858 150.414L89.3953 151.824L90.8095 150.419L89.4 149ZM70.2 129.8L68.7858 128.386L67.3716 129.8L68.7858 131.214L70.2 129.8ZM89.4 110.6L90.8095 109.181L89.3953 107.776L87.9858 109.186L89.4 110.6ZM95.4 116.56L96.7909 117.997L98.2566 116.579L96.8095 115.141L95.4 116.56ZM81.72 129.8L80.3291 128.363L78.8442 129.8L80.3291 131.237L81.72 129.8ZM95.4 143.04L96.8095 144.459L98.2566 143.021L96.7909 141.603L95.4 143.04ZM90.8142 147.586L71.6142 128.386L68.7858 131.214L87.9858 150.414L90.8142 147.586ZM71.6142 131.214L90.8142 112.014L87.9858 109.186L68.7858 128.386L71.6142 131.214ZM87.9905 112.019L93.9905 117.979L96.8095 115.141L90.8095 109.181L87.9905 112.019ZM94.0091 115.123L80.3291 128.363L83.1109 131.237L96.7909 117.997L94.0091 115.123ZM80.3291 131.237L94.0091 144.477L96.7909 141.603L83.1109 128.363L80.3291 131.237ZM93.9905 141.621L87.9905 147.581L90.8095 150.419L96.8095 144.459L93.9905 141.621ZM126.176 155L124.268 155.601L124.709 157H126.176V155ZM108.016 97.4V95.4H105.288L106.108 98.0014L108.016 97.4ZM117.936 97.4L119.843 96.7989L119.402 95.4H117.936V97.4ZM133.136 145.64L131.228 146.241L133.123 152.255L135.041 146.248L133.136 145.64ZM148.536 97.4V95.4H147.075L146.63 96.7918L148.536 97.4ZM158.456 97.4L160.363 98.0014L161.183 95.4H158.456V97.4ZM140.296 155V157H141.762L142.203 155.601L140.296 155ZM128.083 154.399L109.923 96.7986L106.108 98.0014L124.268 155.601L128.083 154.399ZM108.016 99.4H117.936V95.4H108.016V99.4ZM116.028 98.001L131.228 146.241L135.043 145.039L119.843 96.7989L116.028 98.001ZM135.041 146.248L150.441 98.0082L146.63 96.7918L131.23 145.032L135.041 146.248ZM148.536 99.4H158.456V95.4H148.536V99.4ZM156.548 96.7986L138.388 154.399L142.203 155.601L160.363 98.0014L156.548 96.7986ZM140.296 153H126.176V157H140.296V153ZM165.42 153.36L166.414 151.624L166.414 151.624L165.42 153.36ZM157.66 145.48L155.906 146.441L155.912 146.451L157.66 145.48ZM157.62 121.6L159.392 122.527L159.395 122.521L157.62 121.6ZM165.18 113.48L164.157 111.761L164.157 111.761L165.18 113.48ZM187.78 113.76L186.661 115.418L186.669 115.423L186.677 115.428L187.78 113.76ZM194.78 122.6L192.922 123.341L192.922 123.341L194.78 122.6ZM196.5 136.08V138.08H198.361L198.495 136.224L196.5 136.08ZM186.94 136.08H184.94V138.08H186.94V136.08ZM186.94 132.56L188.94 132.56L188.94 132.549L186.94 132.56ZM184.46 122.28L186.058 121.077L186.058 121.077L184.46 122.28ZM167.98 122.72L169.548 123.961L169.555 123.953L167.98 122.72ZM167.98 143.56L166.418 144.809L166.418 144.809L167.98 143.56ZM182.5 145.6L183.541 147.308L183.548 147.303L182.5 145.6ZM186.5 141L187.079 139.086L185.42 138.584L184.688 140.154L186.5 141ZM196.02 143.88L197.861 144.662L198.732 142.611L196.599 141.966L196.02 143.88ZM188.34 152.96L187.282 151.263L187.276 151.266L188.34 152.96ZM162.06 136.08H160.06V138.08H162.06V136.08ZM162.06 128.8V126.8H160.06V128.8H162.06ZM191.78 128.8H193.78V126.8H191.78V128.8ZM191.78 136.08V138.08H193.78V136.08H191.78ZM176.94 154.2C172.863 154.2 169.376 153.32 166.414 151.624L164.426 155.096C168.078 157.186 172.27 158.2 176.94 158.2V154.2ZM166.414 151.624C163.427 149.914 161.099 147.553 159.408 144.509L155.912 146.451C157.954 150.127 160.8 153.019 164.426 155.096L166.414 151.624ZM159.414 144.519C157.757 141.493 156.9 137.966 156.9 133.88H152.9C152.9 138.541 153.883 142.747 155.906 146.441L159.414 144.519ZM156.9 133.88C156.9 129.417 157.756 125.654 159.392 122.527L155.848 120.673C153.857 124.479 152.9 128.903 152.9 133.88H156.9ZM159.395 122.521C161.045 119.342 163.312 116.919 166.203 115.199L164.157 111.761C160.595 113.881 157.821 116.871 155.845 120.679L159.395 122.521ZM166.203 115.199C169.082 113.486 172.452 112.6 176.38 112.6V108.6C171.828 108.6 167.732 109.634 164.157 111.761L166.203 115.199ZM176.38 112.6C180.538 112.6 183.93 113.574 186.661 115.418L188.899 112.102C185.39 109.733 181.182 108.6 176.38 108.6V112.6ZM186.677 115.428C189.453 117.263 191.539 119.871 192.922 123.341L196.638 121.859C194.981 117.702 192.4 114.417 188.883 112.092L186.677 115.428ZM192.922 123.341C194.305 126.809 194.862 130.987 194.505 135.936L198.495 136.224C198.884 130.826 198.295 126.017 196.638 121.859L192.922 123.341ZM196.5 134.08H186.94V138.08H196.5V134.08ZM188.94 136.08V132.56H184.94V136.08H188.94ZM188.94 132.549C188.912 127.708 188.073 123.753 186.058 121.077L182.862 123.483C184.1 125.127 184.914 128.025 184.94 132.571L188.94 132.549ZM186.058 121.077C183.947 118.274 180.701 117.04 176.78 117.04V121.04C179.846 121.04 181.72 121.966 182.862 123.483L186.058 121.077ZM176.78 117.04C172.398 117.04 168.803 118.424 166.405 121.487L169.555 123.953C170.997 122.11 173.269 121.04 176.78 121.04V117.04ZM166.412 121.479C164.1 124.4 163.1 128.478 163.1 133.4H167.1C167.1 128.935 168.02 125.893 169.548 123.961L166.412 121.479ZM163.1 133.4C163.1 138.04 164.116 141.932 166.418 144.809L169.542 142.311C168.004 140.388 167.1 137.507 167.1 133.4H163.1ZM166.418 144.809C168.794 147.779 172.226 149.16 176.38 149.16V145.16C173.174 145.16 171.006 144.141 169.542 142.311L166.418 144.809ZM176.38 149.16C179.051 149.16 181.466 148.572 183.541 147.308L181.459 143.892C180.121 144.708 178.456 145.16 176.38 145.16V149.16ZM183.548 147.303C185.643 146.014 187.228 144.169 188.312 141.846L184.688 140.154C183.905 141.831 182.824 143.052 181.452 143.897L183.548 147.303ZM185.921 142.914L195.441 145.794L196.599 141.966L187.079 139.086L185.921 142.914ZM194.179 143.098C192.68 146.627 190.387 149.328 187.282 151.263L189.398 154.657C193.226 152.272 196.053 148.919 197.861 144.662L194.179 143.098ZM187.276 151.266C184.163 153.221 180.733 154.2 176.94 154.2V158.2C181.467 158.2 185.637 157.019 189.404 154.654L187.276 151.266ZM164.06 136.08V128.8H160.06V136.08H164.06ZM162.06 130.8H191.78V126.8H162.06V130.8ZM189.78 128.8V136.08H193.78V128.8H189.78ZM191.78 134.08H162.06V138.08H191.78V134.08ZM253.733 155H251.733V157H253.733V155ZM251.533 121.84L250.026 123.155L250.032 123.161L250.037 123.167L251.533 121.84ZM241.413 120.4L242.397 122.141L242.411 122.133L242.426 122.125L241.413 120.4ZM238.493 123.52L240.261 124.456L240.264 124.449L240.268 124.442L238.493 123.52ZM237.413 128.4L236.398 130.123L239.413 131.898V128.4H237.413ZM233.133 125.88L231.133 125.898L231.143 127.029L232.118 127.603L233.133 125.88ZM235.133 118L233.422 116.965L233.418 116.971L235.133 118ZM240.733 112.64L241.691 114.396L241.691 114.396L240.733 112.64ZM259.533 115.04L258.031 116.361L258.038 116.368L258.044 116.376L259.533 115.04ZM263.373 155V157H265.373V155H263.373ZM201.773 155H199.773V157H201.773V155ZM201.773 111.8V109.8H199.773V111.8H201.773ZM210.293 111.8H212.293V109.8H210.293V111.8ZM210.293 125.2H208.293V127.2H210.293V125.2ZM211.493 125.2H213.493V123.2H211.493V125.2ZM211.493 155V157H213.493V155H211.493ZM227.813 155H225.813V157H227.813V155ZM225.613 121.84L227.12 120.525L227.12 120.525L225.613 121.84ZM213.693 121.84L212.198 120.511L212.192 120.518L212.186 120.525L213.693 121.84ZM211.493 128.4L210.384 130.064L213.493 132.137V128.4H211.493ZM207.173 125.52H205.173V126.59L206.064 127.184L207.173 125.52ZM209.253 117.96L207.553 116.907L207.553 116.907L209.253 117.96ZM214.853 112.68L215.811 114.436L215.818 114.432L214.853 112.68ZM230.893 112.8L229.813 114.483L229.825 114.491L229.837 114.498L230.893 112.8ZM235.773 118.4L233.949 119.22L233.954 119.232L233.96 119.245L235.773 118.4ZM237.413 155V157H239.413V155H237.413ZM255.733 155V128.76H251.733V155H255.733ZM255.733 128.76C255.733 125.479 254.917 122.641 253.029 120.513L250.037 123.167C251.083 124.346 251.733 126.121 251.733 128.76H255.733ZM253.04 120.525C251.144 118.353 248.577 117.32 245.573 117.32V121.32C247.582 121.32 248.989 121.967 250.026 123.155L253.04 120.525ZM245.573 117.32C243.703 117.32 241.961 117.759 240.401 118.675L242.426 122.125C243.319 121.601 244.35 121.32 245.573 121.32V117.32ZM240.429 118.659C238.829 119.563 237.597 120.906 236.718 122.598L240.268 124.442C240.83 123.36 241.544 122.623 242.397 122.141L240.429 118.659ZM236.726 122.584C235.822 124.292 235.413 126.255 235.413 128.4H239.413C239.413 126.759 239.725 125.468 240.261 124.456L236.726 122.584ZM238.428 126.677L234.148 124.157L232.118 127.603L236.398 130.123L238.428 126.677ZM235.133 125.862C235.109 123.195 235.701 120.94 236.848 119.029L233.418 116.971C231.845 119.593 231.104 122.592 231.133 125.898L235.133 125.862ZM236.845 119.035C238.049 117.043 239.656 115.506 241.691 114.396L239.775 110.884C237.117 112.334 234.991 114.37 233.422 116.965L236.845 119.035ZM241.691 114.396C243.721 113.288 246.001 112.72 248.573 112.72V108.72C245.385 108.72 242.438 109.432 239.775 110.884L241.691 114.396ZM248.573 112.72C252.923 112.72 255.968 114.015 258.031 116.361L261.035 113.719C258.032 110.305 253.77 108.72 248.573 108.72V112.72ZM258.044 116.376C260.207 118.786 261.373 122.034 261.373 126.32H265.373C265.373 121.273 263.979 117 261.022 113.704L258.044 116.376ZM261.373 126.32V155H265.373V126.32H261.373ZM263.373 153H253.733V157H263.373V153ZM203.773 155V111.8H199.773V155H203.773ZM201.773 113.8H210.293V109.8H201.773V113.8ZM208.293 111.8V125.2H212.293V111.8H208.293ZM210.293 127.2H211.493V123.2H210.293V127.2ZM209.493 125.2V155H213.493V125.2H209.493ZM211.493 153H201.773V157H211.493V153ZM229.813 155V128.88H225.813V155H229.813ZM229.813 128.88C229.813 125.554 229.001 122.68 227.12 120.525L224.106 123.155C225.158 124.36 225.813 126.179 225.813 128.88H229.813ZM227.12 120.525C225.219 118.348 222.637 117.32 219.613 117.32V121.32C221.656 121.32 223.074 121.972 224.106 123.155L227.12 120.525ZM219.613 117.32C216.647 117.32 214.108 118.362 212.198 120.511L215.188 123.169C216.264 121.958 217.672 121.32 219.613 121.32V117.32ZM212.186 120.525C210.339 122.641 209.493 125.328 209.493 128.4H213.493C213.493 126.085 214.114 124.399 215.2 123.155L212.186 120.525ZM212.603 126.736L208.283 123.856L206.064 127.184L210.384 130.064L212.603 126.736ZM209.173 125.52C209.173 123.068 209.775 120.916 210.954 119.013L207.553 116.907C205.958 119.484 205.173 122.372 205.173 125.52H209.173ZM210.954 119.013C212.155 117.072 213.764 115.552 215.811 114.436L213.895 110.924C211.249 112.368 209.125 114.368 207.553 116.907L210.954 119.013ZM215.818 114.432C217.871 113.301 220.188 112.72 222.813 112.72V108.72C219.571 108.72 216.581 109.445 213.889 110.928L215.818 114.432ZM222.813 112.72C225.755 112.72 228.049 113.351 229.813 114.483L231.974 111.117C229.418 109.476 226.325 108.72 222.813 108.72V112.72ZM229.837 114.498C231.682 115.646 233.043 117.205 233.949 119.22L237.597 117.58C236.37 114.848 234.477 112.674 231.949 111.102L229.837 114.498ZM233.96 119.245C234.914 121.291 235.413 123.65 235.413 126.36H239.413C239.413 123.15 238.819 120.202 237.586 117.555L233.96 119.245ZM235.413 126.36V155H239.413V126.36H235.413ZM237.413 153H227.813V157H237.413V153ZM294.942 154L294.142 155.833L294.147 155.835L294.942 154ZM286.622 147.72L285.05 148.956L285.056 148.965L285.063 148.973L286.622 147.72ZM282.502 137.96L282.201 135.983L280.216 136.284L280.526 138.268L282.502 137.96ZM292.502 136.44L294.442 135.955L294.001 134.189L292.201 134.463L292.502 136.44ZM297.742 144.36L296.587 145.993L296.595 145.998L297.742 144.36ZM312.742 146.2L313.408 148.086L313.408 148.086L312.742 146.2ZM317.142 143.4L315.681 142.034L315.673 142.043L315.665 142.051L317.142 143.4ZM318.462 136.68L316.595 137.398L316.6 137.41L316.605 137.423L318.462 136.68ZM317.262 134.84L315.812 136.217L315.83 136.236L315.848 136.254L317.262 134.84ZM315.262 133.4L314.276 135.14L314.31 135.159L314.345 135.177L315.262 133.4ZM312.462 132.24L313.037 130.324L313.029 130.322L312.462 132.24ZM297.582 127.84L298.149 125.922L298.142 125.92L297.582 127.84ZM293.422 126.36L292.622 128.193L292.642 128.202L292.662 128.21L293.422 126.36ZM289.222 123.76L287.92 125.279L287.937 125.293L287.954 125.307L289.222 123.76ZM285.982 119.52L284.177 120.381L284.185 120.398L284.193 120.414L285.982 119.52ZM287.542 103.8L285.94 102.603L285.938 102.605L287.542 103.8ZM295.142 98.12L294.412 96.2577L294.407 96.2598L295.142 98.12ZM305.782 96.28L305.768 98.28L305.768 98.28L305.782 96.28ZM316.342 98.32L315.55 100.157L315.557 100.16L315.564 100.162L316.342 98.32ZM324.102 104.04L325.641 102.763L325.641 102.763L324.102 104.04ZM328.502 113.12L328.844 115.09L330.945 114.725L330.446 112.652L328.502 113.12ZM318.142 114.92L316.185 115.332L316.582 117.221L318.484 116.89L318.142 114.92ZM315.662 109.76L314.125 111.04L314.138 111.056L314.151 111.071L315.662 109.76ZM311.222 106.48L310.431 108.317L310.441 108.321L311.222 106.48ZM305.662 105.28L305.716 103.281L305.703 103.28L305.69 103.28L305.662 105.28ZM300.302 106.16L300.98 108.041L300.989 108.038L300.997 108.035L300.302 106.16ZM296.342 108.72L294.859 107.378L294.85 107.388L294.841 107.398L296.342 108.72ZM296.142 116.12L294.685 117.491L294.696 117.502L294.706 117.512L296.142 116.12ZM299.302 118.24L298.519 120.08L298.542 120.09L298.566 120.1L299.302 118.24ZM303.182 119.52L303.719 117.594L303.707 117.59L303.695 117.587L303.182 119.52ZM313.502 122.4L312.964 124.326L312.978 124.33L312.991 124.334L313.502 122.4ZM318.262 123.92L317.578 125.8L317.578 125.8L318.262 123.92ZM327.342 131.12L325.595 132.093L325.6 132.103L325.605 132.112L327.342 131.12ZM327.062 146.12L325.312 145.152L325.308 145.159L327.062 146.12ZM322.062 151.72L323.218 153.352L323.218 153.352L322.062 151.72ZM314.822 155.08L314.292 153.151L314.288 153.153L314.822 155.08ZM306.342 154.2C302.363 154.2 298.839 153.508 295.737 152.165L294.147 155.835C297.818 157.425 301.894 158.2 306.342 158.2V154.2ZM295.742 152.167C292.663 150.823 290.155 148.922 288.181 146.467L285.063 148.973C287.462 151.958 290.501 154.244 294.142 155.833L295.742 152.167ZM288.194 146.484C286.265 144.03 285.017 141.104 284.478 137.652L280.526 138.268C281.16 142.336 282.659 145.916 285.05 148.956L288.194 146.484ZM282.802 139.937L292.802 138.417L292.201 134.463L282.201 135.983L282.802 139.937ZM290.562 136.925C291.52 140.759 293.521 143.825 296.587 145.993L298.897 142.727C296.683 141.162 295.19 138.948 294.442 135.955L290.562 136.925ZM296.595 145.998C299.62 148.116 303.093 149.16 306.942 149.16V145.16C303.857 145.16 301.197 144.337 298.889 142.722L296.595 145.998ZM306.942 149.16C309.207 149.16 311.366 148.806 313.408 148.086L312.076 144.314C310.491 144.874 308.784 145.16 306.942 145.16V149.16ZM313.408 148.086C315.482 147.354 317.244 146.254 318.619 144.749L315.665 142.051C314.8 142.999 313.628 143.766 312.076 144.314L313.408 148.086ZM318.603 144.766C320.119 143.143 320.862 141.138 320.862 138.88H316.862C316.862 140.195 316.458 141.203 315.681 142.034L318.603 144.766ZM320.862 138.88C320.862 137.855 320.69 136.866 320.319 135.937L316.605 137.423C316.767 137.828 316.862 138.305 316.862 138.88H320.862ZM320.329 135.962C319.96 135.003 319.404 134.154 318.676 133.426L315.848 136.254C316.186 136.593 316.431 136.97 316.595 137.398L320.329 135.962ZM318.712 133.463C318.017 132.731 317.154 132.126 316.179 131.623L314.345 135.177C315.023 135.527 315.494 135.883 315.812 136.217L318.712 133.463ZM316.248 131.66C315.294 131.119 314.218 130.679 313.037 130.324L311.887 134.156C312.84 134.441 313.63 134.774 314.276 135.14L316.248 131.66ZM313.029 130.322L298.149 125.922L297.015 129.758L311.895 134.158L313.029 130.322ZM298.142 125.92C296.942 125.57 295.623 125.102 294.182 124.51L292.662 128.21C294.208 128.845 295.662 129.363 297.022 129.76L298.142 125.92ZM294.222 124.527C292.936 123.966 291.692 123.199 290.49 122.213L287.954 125.307C289.418 126.507 290.974 127.474 292.622 128.193L294.222 124.527ZM290.523 122.241C289.44 121.313 288.518 120.12 287.771 118.626L284.193 120.414C285.153 122.334 286.39 123.967 287.92 125.279L290.523 122.241ZM287.787 118.659C287.123 117.266 286.742 115.446 286.742 113.12H282.742C282.742 115.86 283.188 118.307 284.177 120.381L287.787 118.659ZM286.742 113.12C286.742 109.761 287.582 107.095 289.146 104.995L285.938 102.605C283.769 105.518 282.742 109.065 282.742 113.12H286.742ZM289.144 104.997C290.798 102.784 293.02 101.108 295.877 99.9802L294.407 96.2598C290.917 97.6383 288.073 99.7488 285.94 102.603L289.144 104.997ZM295.871 99.9823C298.805 98.8331 302.095 98.2548 305.768 98.28L305.796 94.28C301.682 94.2519 297.879 94.9002 294.412 96.2577L295.871 99.9823ZM305.768 98.28C309.493 98.3051 312.741 98.9459 315.55 100.157L317.134 96.4834C313.756 95.0275 309.964 94.3082 305.795 94.28L305.768 98.28ZM315.564 100.162C318.371 101.348 320.694 103.065 322.563 105.317L325.641 102.763C323.35 100.002 320.499 97.905 317.12 96.4776L315.564 100.162ZM322.563 105.317C324.425 107.562 325.767 110.302 326.557 113.588L330.446 112.652C329.53 108.844 327.939 105.532 325.641 102.763L322.563 105.317ZM328.16 111.15L317.8 112.95L318.484 116.89L328.844 115.09L328.16 111.15ZM320.099 114.508C319.61 112.185 318.645 110.146 317.172 108.449L314.151 111.071C315.132 112.201 315.821 113.602 316.185 115.332L320.099 114.508ZM317.198 108.48C315.791 106.79 314.05 105.507 312.003 104.639L310.441 108.321C311.914 108.946 313.133 109.85 314.125 111.04L317.198 108.48ZM312.013 104.643C310.036 103.791 307.931 103.341 305.716 103.281L305.608 107.279C307.339 107.326 308.941 107.675 310.431 108.317L312.013 104.643ZM305.69 103.28C303.545 103.25 301.511 103.578 299.606 104.285L300.997 108.035C302.4 107.515 303.939 107.256 305.634 107.28L305.69 103.28ZM299.623 104.279C297.733 104.96 296.122 105.982 294.859 107.378L297.825 110.062C298.588 109.218 299.617 108.533 300.98 108.041L299.623 104.279ZM294.841 107.398C293.533 108.883 292.862 110.66 292.862 112.64H296.862C296.862 111.633 297.178 110.797 297.843 110.042L294.841 107.398ZM292.862 112.64C292.862 114.489 293.435 116.162 294.685 117.491L297.598 114.749C297.142 114.264 296.862 113.618 296.862 112.64H292.862ZM294.706 117.512C295.765 118.604 297.048 119.454 298.519 120.08L300.085 116.4C299.05 115.959 298.226 115.396 297.578 114.728L294.706 117.512ZM298.566 120.1C299.917 120.635 301.285 121.086 302.669 121.453L303.695 117.587C302.465 117.261 301.246 116.859 300.038 116.38L298.566 120.1ZM302.644 121.446L312.964 124.326L314.039 120.474L303.719 117.594L302.644 121.446ZM312.991 124.334C314.333 124.688 315.86 125.175 317.578 125.8L318.945 122.04C317.144 121.385 315.498 120.859 314.013 120.466L312.991 124.334ZM317.578 125.8C319.162 126.375 320.699 127.184 322.19 128.235L324.494 124.965C322.732 123.723 320.882 122.745 318.945 122.04L317.578 125.8ZM322.19 128.235C323.553 129.196 324.69 130.469 325.595 132.093L329.089 130.147C327.914 128.037 326.384 126.298 324.494 124.965L322.19 128.235ZM325.605 132.112C326.45 133.591 326.942 135.594 326.942 138.24H330.942C330.942 135.126 330.367 132.382 329.078 130.128L325.605 132.112ZM326.942 138.24C326.942 140.94 326.378 143.224 325.312 145.152L328.812 147.088C330.253 144.482 330.942 141.513 330.942 138.24H326.942ZM325.308 145.159C324.228 147.13 322.767 148.768 320.905 150.088L323.218 153.352C325.57 151.685 327.442 149.59 328.816 147.081L325.308 145.159ZM320.905 150.088C319.006 151.435 316.808 152.461 314.292 153.151L315.351 157.009C318.275 156.206 320.905 154.992 323.218 153.352L320.905 150.088ZM314.288 153.153C311.778 153.848 309.132 154.2 306.342 154.2V158.2C309.472 158.2 312.479 157.805 315.356 157.007L314.288 153.153ZM339.36 154.44L338.389 156.188L338.397 156.193L338.405 156.197L339.36 154.44ZM334.44 149.68L332.691 150.649L332.696 150.658L332.701 150.667L334.44 149.68ZM333.84 137.56L335.684 138.333L335.689 138.323L333.84 137.56ZM337.04 133.24L338.32 134.776L338.329 134.77L338.337 134.762L337.04 133.24ZM342.64 130.24L342.025 128.337L342.013 128.341L342.001 128.345L342.64 130.24ZM348.72 128.72L348.341 126.756L348.336 126.757L348.72 128.72ZM356.32 127.48L356.592 129.461L356.6 129.46L356.608 129.459L356.32 127.48ZM364.92 126.2L365.91 127.938L364.62 124.223L364.92 126.2ZM361.48 128.16L359.48 128.142L359.449 131.619L362.47 129.898L361.48 128.16ZM359.48 121.56L358.039 122.947L358.039 122.947L359.48 121.56ZM346.96 120.8L347.854 122.589L347.854 122.589L346.96 120.8ZM343.16 125.48L342.561 127.388L344.45 127.981L345.062 126.099L343.16 125.48ZM334.36 122.72L332.44 122.159L331.891 124.042L333.761 124.628L334.36 122.72ZM340.44 113.92L339.256 112.308L339.249 112.313L340.44 113.92ZM362.72 112.48L361.928 114.317L361.934 114.319L362.72 112.48ZM369.24 118.64L367.448 119.528L367.453 119.537L367.457 119.547L369.24 118.64ZM370.64 123.32L368.65 123.519L368.65 123.522L370.64 123.32ZM370.88 155V157H372.88V155H370.88ZM362.44 155H360.44V157H362.44V155ZM362.44 145.64L363.911 144.285L360.44 140.516V145.64H362.44ZM363.84 147.16L365.537 148.219L366.343 146.926L365.311 145.805L363.84 147.16ZM357 154.04L357.973 155.787L357.979 155.784L357 154.04ZM354.8 147.36L355.694 149.149L355.694 149.149L354.8 147.36ZM358.48 144.52L356.944 143.24L356.934 143.251L356.926 143.262L358.48 144.52ZM360.36 141.36L358.511 140.596L358.482 140.669L358.458 140.743L360.36 141.36ZM361.2 137.16L359.203 137.06L359.202 137.076L359.201 137.092L361.2 137.16ZM361.32 133.28L361.89 131.363L359.32 130.599V133.28H361.32ZM364.28 134.16L364.588 136.136L364.85 132.243L364.28 134.16ZM356.8 135.36L356.471 133.387L356.471 133.387L356.8 135.36ZM351.44 136.36L351.825 138.322L351.842 138.319L351.859 138.316L351.44 136.36ZM347.48 137.36L346.861 135.458L346.834 135.467L346.807 135.477L347.48 137.36ZM342.84 140.6L341.137 139.552L341.122 139.576L341.108 139.601L342.84 140.6ZM343.04 145.88L341.359 146.964L341.368 146.977L341.376 146.989L343.04 145.88ZM345.36 147.8L344.504 149.607L344.513 149.612L344.522 149.616L345.36 147.8ZM347.28 154.2C344.406 154.2 342.113 153.659 340.315 152.683L338.405 156.197C340.927 157.567 343.914 158.2 347.28 158.2V154.2ZM340.331 152.692C338.463 151.654 337.102 150.319 336.179 148.693L332.701 150.667C334.018 152.988 335.937 154.826 338.389 156.188L340.331 152.692ZM336.189 148.711C335.269 147.05 334.8 145.213 334.8 143.16H330.8C330.8 145.854 331.424 148.364 332.691 150.649L336.189 148.711ZM334.8 143.16C334.8 141.304 335.109 139.706 335.684 138.333L331.996 136.787C331.184 138.721 330.8 140.856 330.8 143.16H334.8ZM335.689 138.323C336.254 136.953 337.122 135.775 338.32 134.776L335.76 131.704C334.078 133.105 332.812 134.807 331.991 136.797L335.689 138.323ZM338.337 134.762C339.538 133.74 341.162 132.849 343.279 132.135L342.001 128.345C339.531 129.178 337.422 130.287 335.743 131.718L338.337 134.762ZM343.255 132.143C344.894 131.614 346.84 131.125 349.104 130.683L348.336 126.757C345.96 127.222 343.853 127.746 342.025 128.337L343.255 132.143ZM349.099 130.684C351.406 130.238 353.903 129.831 356.592 129.461L356.048 125.499C353.297 125.876 350.728 126.295 348.341 126.756L349.099 130.684ZM356.608 129.459C359.359 129.058 362.23 128.631 365.22 128.177L364.62 124.223C361.637 124.675 358.774 125.102 356.032 125.501L356.608 129.459ZM363.93 124.462L360.49 126.422L362.47 129.898L365.91 127.938L363.93 124.462ZM363.48 128.178C363.509 124.936 362.795 122.12 360.921 120.173L358.039 122.947C358.885 123.826 359.504 125.411 359.48 128.142L363.48 128.178ZM360.921 120.173C359.002 118.179 356.035 117.44 352.6 117.44V121.44C355.618 121.44 357.238 122.115 358.039 122.947L360.921 120.173ZM352.6 117.44C350.33 117.44 348.145 117.972 346.066 119.011L347.854 122.589C349.402 121.815 350.977 121.44 352.6 121.44V117.44ZM346.066 119.011C343.701 120.193 342.117 122.221 341.258 124.861L345.062 126.099C345.643 124.313 346.592 123.22 347.854 122.589L346.066 119.011ZM343.759 123.572L334.959 120.812L333.761 124.628L342.561 127.388L343.759 123.572ZM336.28 123.281C337.227 120.035 339.004 117.474 341.631 115.527L339.249 112.313C335.903 114.793 333.626 118.098 332.44 122.159L336.28 123.281ZM341.624 115.532C344.189 113.648 347.781 112.6 352.6 112.6V108.6C347.232 108.6 342.717 109.766 339.256 112.308L341.624 115.532ZM352.6 112.6C356.224 112.6 359.319 113.191 361.928 114.317L363.512 110.643C360.308 109.262 356.656 108.6 352.6 108.6V112.6ZM361.934 114.319C364.43 115.386 366.246 117.102 367.448 119.528L371.032 117.752C369.407 114.471 366.876 112.081 363.506 110.641L361.934 114.319ZM367.457 119.547C368.125 120.859 368.516 122.18 368.65 123.519L372.63 123.121C372.444 121.26 371.901 119.461 371.023 117.733L367.457 119.547ZM368.65 123.522C368.802 125.018 368.88 126.669 368.88 128.48H372.88C372.88 126.557 372.798 124.769 372.63 123.118L368.65 123.522ZM368.88 128.48V155H372.88V128.48H368.88ZM370.88 153H362.44V157H370.88V153ZM364.44 155V145.64H360.44V155H364.44ZM360.969 146.995L362.369 148.515L365.311 145.805L363.911 144.285L360.969 146.995ZM362.143 146.101C360.334 149 358.282 151.027 356.021 152.296L357.979 155.784C360.945 154.12 363.452 151.56 365.537 148.219L362.143 146.101ZM356.027 152.293C353.817 153.523 350.937 154.2 347.28 154.2V158.2C351.41 158.2 355.009 157.437 357.973 155.787L356.027 152.293ZM349.2 150.52C351.617 150.52 353.806 150.093 355.694 149.149L353.906 145.571C352.7 146.174 351.156 146.52 349.2 146.52V150.52ZM355.694 149.149C357.446 148.273 358.916 147.16 360.034 145.778L356.926 143.262C356.231 144.12 355.247 144.9 353.906 145.571L355.694 149.149ZM360.016 145.8C361.052 144.558 361.839 143.283 362.262 141.977L358.458 140.743C358.241 141.41 357.775 142.242 356.944 143.24L360.016 145.8ZM362.209 142.124C362.822 140.639 363.139 138.997 363.199 137.228L359.201 137.092C359.154 138.47 358.912 139.628 358.511 140.596L362.209 142.124ZM363.198 137.26C363.278 135.644 363.32 134.314 363.32 133.28H359.32C359.32 134.219 359.282 135.476 359.203 137.06L363.198 137.26ZM360.75 135.197L363.71 136.077L364.85 132.243L361.89 131.363L360.75 135.197ZM363.972 132.184C361.061 132.638 358.56 133.039 356.471 133.387L357.129 137.333C359.2 136.988 361.686 136.589 364.588 136.136L363.972 132.184ZM356.471 133.387C354.371 133.737 352.553 134.076 351.021 134.404L351.859 138.316C353.314 138.004 355.069 137.676 357.129 137.333L356.471 133.387ZM351.055 134.398C349.502 134.703 348.101 135.055 346.861 135.458L348.099 139.262C349.152 138.919 350.392 138.604 351.825 138.322L351.055 134.398ZM346.807 135.477C345.565 135.92 344.453 136.459 343.505 137.114L345.775 140.406C346.373 139.994 347.155 139.6 348.153 139.243L346.807 135.477ZM343.505 137.114C342.537 137.781 341.73 138.588 341.137 139.552L344.543 141.648C344.804 141.225 345.196 140.806 345.775 140.406L343.505 137.114ZM341.108 139.601C340.505 140.645 340.24 141.815 340.24 143.04H344.24C344.24 142.399 344.375 141.942 344.572 141.599L341.108 139.601ZM340.24 143.04C340.24 144.458 340.6 145.787 341.359 146.964L344.721 144.796C344.413 144.32 344.24 143.756 344.24 143.04H340.24ZM341.376 146.989C342.142 148.138 343.218 148.998 344.504 149.607L346.216 145.993C345.475 145.642 345.005 145.222 344.704 144.771L341.376 146.989ZM344.522 149.616C345.896 150.25 347.481 150.52 349.2 150.52V146.52C347.879 146.52 346.904 146.31 346.198 145.984L344.522 149.616ZM382.614 145.04L380.767 145.807L380.769 145.812L382.614 145.04ZM382.614 121.72L384.459 122.492L384.459 122.492L382.614 121.72ZM388.934 113.6L390.093 115.23L390.096 115.227L388.934 113.6ZM409.894 113.6L408.781 115.262L408.789 115.268L408.798 115.273L409.894 113.6ZM416.894 121.72L415.091 122.586L415.094 122.592L416.894 121.72ZM410.054 153.2L408.934 151.543L408.934 151.543L410.054 153.2ZM378.814 155H376.814V157H378.814V155ZM378.814 97.4V95.4H376.814V97.4H378.814ZM388.534 97.4H390.534V95.4H388.534V97.4ZM388.534 124.68V126.68H390.534V124.68H388.534ZM387.334 124.68V122.68H385.334V124.68H387.334ZM387.334 155V157H389.334V155H387.334ZM404.374 145.68L403.153 144.096L403.153 144.096L404.374 145.68ZM407.974 140.6L406.098 139.905L406.093 139.918L407.974 140.6ZM407.974 126.28L406.098 126.975L406.101 126.982L407.974 126.28ZM404.254 121.16L403.042 122.751L403.05 122.757L403.058 122.763L404.254 121.16ZM391.854 121.04L393.063 122.633L393.071 122.627L393.08 122.62L391.854 121.04ZM388.414 126L386.526 125.339L386.524 125.346L386.521 125.353L388.414 126ZM388.414 140.8L386.519 141.44L386.522 141.45L386.526 141.461L388.414 140.8ZM391.894 145.8L390.681 147.39L390.696 147.402L390.711 147.413L391.894 145.8ZM399.654 154.2C395.764 154.2 392.654 153.281 390.202 151.562L387.906 154.838C391.161 157.119 395.117 158.2 399.654 158.2V154.2ZM390.202 151.562C387.68 149.794 385.763 147.385 384.459 144.268L380.769 145.812C382.344 149.575 384.721 152.606 387.906 154.838L390.202 151.562ZM384.461 144.273C383.135 141.082 382.454 137.468 382.454 133.4H378.454C378.454 137.919 379.212 142.065 380.767 145.807L384.461 144.273ZM382.454 133.4C382.454 129.275 383.137 125.651 384.459 122.492L380.769 120.948C379.211 124.669 378.454 128.832 378.454 133.4H382.454ZM384.459 122.492C385.769 119.362 387.653 116.966 390.093 115.23L387.774 111.97C384.668 114.18 382.339 117.198 380.769 120.948L384.459 122.492ZM390.096 115.227C392.495 113.514 395.521 112.6 399.294 112.6V108.6C394.853 108.6 390.972 109.686 387.771 111.973L390.096 115.227ZM399.294 112.6C403.033 112.6 406.167 113.511 408.781 115.262L411.007 111.938C407.648 109.689 403.715 108.6 399.294 108.6V112.6ZM408.798 115.273C411.488 117.035 413.586 119.454 415.091 122.586L418.696 120.854C416.895 117.106 414.326 114.112 410.989 111.927L408.798 115.273ZM415.094 122.592C416.597 125.695 417.374 129.282 417.374 133.4H421.374C421.374 128.771 420.497 124.572 418.694 120.848L415.094 122.592ZM417.374 133.4C417.374 137.464 416.61 141.046 415.126 144.185L418.742 145.895C420.511 142.154 421.374 137.976 421.374 133.4H417.374ZM415.126 144.185C413.642 147.323 411.577 149.757 408.934 151.543L411.173 154.857C414.45 152.643 416.972 149.637 418.742 145.895L415.126 144.185ZM408.934 151.543C406.341 153.295 403.275 154.2 399.654 154.2V158.2C403.98 158.2 407.846 157.105 411.173 154.857L408.934 151.543ZM380.814 155V97.4H376.814V155H380.814ZM378.814 99.4H388.534V95.4H378.814V99.4ZM386.534 97.4V124.68H390.534V97.4H386.534ZM388.534 122.68H387.334V126.68H388.534V122.68ZM385.334 124.68V155H389.334V124.68H385.334ZM387.334 153H378.814V157H387.334V153ZM398.174 149.56C401.022 149.56 403.546 148.842 405.594 147.264L403.153 144.096C401.948 145.024 400.339 145.56 398.174 145.56V149.56ZM405.594 147.264C407.553 145.755 408.965 143.734 409.854 141.282L406.093 139.918C405.436 141.733 404.447 143.098 403.153 144.096L405.594 147.264ZM409.849 141.295C410.743 138.882 411.174 136.243 411.174 133.4H407.174C407.174 135.837 406.805 137.998 406.098 139.905L409.849 141.295ZM411.174 133.4C411.174 130.582 410.742 127.966 409.846 125.578L406.101 126.982C406.805 128.861 407.174 130.992 407.174 133.4H411.174ZM409.849 125.585C408.929 123.101 407.469 121.064 405.45 119.557L403.058 122.763C404.398 123.763 405.419 125.139 406.098 126.975L409.849 125.585ZM405.466 119.569C403.365 117.969 400.778 117.24 397.854 117.24V121.24C400.103 121.24 401.782 121.791 403.042 122.751L405.466 119.569ZM397.854 117.24C395.071 117.24 392.606 117.925 390.628 119.46L393.08 122.62C394.195 121.755 395.73 121.24 397.854 121.24V117.24ZM390.645 119.447C388.737 120.894 387.381 122.897 386.526 125.339L390.301 126.661C390.94 124.836 391.878 123.532 393.063 122.633L390.645 119.447ZM386.521 125.353C385.714 127.716 385.334 130.41 385.334 133.4H389.334C389.334 130.737 389.674 128.498 390.306 126.647L386.521 125.353ZM385.334 133.4C385.334 136.367 385.715 139.057 386.519 141.44L390.309 140.16C389.673 138.276 389.334 136.033 389.334 133.4H385.334ZM386.526 141.461C387.383 143.909 388.754 145.921 390.681 147.39L393.107 144.21C391.887 143.279 390.938 141.958 390.301 140.139L386.526 141.461ZM390.711 147.413C392.745 148.905 395.291 149.56 398.174 149.56V145.56C395.884 145.56 394.242 145.042 393.076 144.187L390.711 147.413ZM433.911 153.36L434.904 151.624L434.904 151.624L433.911 153.36ZM426.151 145.48L424.396 146.441L424.402 146.451L426.151 145.48ZM426.111 121.6L427.883 122.527L427.886 122.521L426.111 121.6ZM433.671 113.48L432.648 111.761L432.648 111.761L433.671 113.48ZM456.271 113.76L455.151 115.418L455.16 115.423L455.168 115.428L456.271 113.76ZM463.271 122.6L461.413 123.341L461.413 123.341L463.271 122.6ZM464.991 136.08V138.08H466.851L466.985 136.224L464.991 136.08ZM455.431 136.08H453.431V138.08H455.431V136.08ZM455.431 132.56L457.431 132.56L457.431 132.549L455.431 132.56ZM452.951 122.28L454.548 121.077L454.548 121.077L452.951 122.28ZM436.471 122.72L438.039 123.961L438.046 123.953L436.471 122.72ZM436.471 143.56L434.909 144.809L434.909 144.809L436.471 143.56ZM450.991 145.6L452.031 147.308L452.039 147.303L450.991 145.6ZM454.991 141L455.57 139.086L453.911 138.584L453.178 140.154L454.991 141ZM464.511 143.88L466.352 144.662L467.222 142.611L465.09 141.966L464.511 143.88ZM456.831 152.96L455.773 151.263L455.767 151.266L456.831 152.96ZM430.551 136.08H428.551V138.08H430.551V136.08ZM430.551 128.8V126.8H428.551V128.8H430.551ZM460.271 128.8H462.271V126.8H460.271V128.8ZM460.271 136.08V138.08H462.271V136.08H460.271ZM445.431 154.2C441.354 154.2 437.866 153.32 434.904 151.624L432.917 155.096C436.568 157.186 440.761 158.2 445.431 158.2V154.2ZM434.904 151.624C431.917 149.914 429.59 147.553 427.899 144.509L424.402 146.451C426.444 150.127 429.291 153.019 432.917 155.096L434.904 151.624ZM427.905 144.519C426.248 141.493 425.391 137.966 425.391 133.88H421.391C421.391 138.541 422.374 142.747 424.396 146.441L427.905 144.519ZM425.391 133.88C425.391 129.417 426.247 125.654 427.883 122.527L424.338 120.673C422.348 124.479 421.391 128.903 421.391 133.88H425.391ZM427.886 122.521C429.536 119.342 431.803 116.919 434.693 115.199L432.648 111.761C429.085 113.881 426.312 116.871 424.336 120.679L427.886 122.521ZM434.693 115.199C437.572 113.486 440.943 112.6 444.871 112.6V108.6C440.318 108.6 436.222 109.634 432.648 111.761L434.693 115.199ZM444.871 112.6C449.029 112.6 452.421 113.574 455.151 115.418L457.39 112.102C453.881 109.733 449.672 108.6 444.871 108.6V112.6ZM455.168 115.428C457.944 117.263 460.03 119.871 461.413 123.341L465.128 121.859C463.471 117.702 460.891 114.417 457.373 112.092L455.168 115.428ZM461.413 123.341C462.795 126.809 463.353 130.987 462.996 135.936L466.985 136.224C467.375 130.826 466.786 126.017 465.128 121.859L461.413 123.341ZM464.991 134.08H455.431V138.08H464.991V134.08ZM457.431 136.08V132.56H453.431V136.08H457.431ZM457.431 132.549C457.403 127.708 456.564 123.753 454.548 121.077L451.353 123.483C452.591 125.127 453.405 128.025 453.431 132.571L457.431 132.549ZM454.548 121.077C452.437 118.274 449.191 117.04 445.271 117.04V121.04C448.337 121.04 450.211 121.966 451.353 123.483L454.548 121.077ZM445.271 117.04C440.889 117.04 437.293 118.424 434.896 121.487L438.046 123.953C439.488 122.11 441.759 121.04 445.271 121.04V117.04ZM434.902 121.479C432.591 124.4 431.591 128.478 431.591 133.4H435.591C435.591 128.935 436.511 125.893 438.039 123.961L434.902 121.479ZM431.591 133.4C431.591 138.04 432.607 141.932 434.909 144.809L438.032 142.311C436.495 140.388 435.591 137.507 435.591 133.4H431.591ZM434.909 144.809C437.285 147.779 440.716 149.16 444.871 149.16V145.16C441.665 145.16 439.497 144.141 438.032 142.311L434.909 144.809ZM444.871 149.16C447.542 149.16 449.957 148.572 452.031 147.308L449.95 143.892C448.611 144.708 446.946 145.16 444.871 145.16V149.16ZM452.039 147.303C454.133 146.014 455.719 144.169 456.803 141.846L453.178 140.154C452.396 141.831 451.314 143.052 449.942 143.897L452.039 147.303ZM454.411 142.914L463.931 145.794L465.09 141.966L455.57 139.086L454.411 142.914ZM462.67 143.098C461.171 146.627 458.878 149.328 455.773 151.263L457.888 154.657C461.717 152.272 464.544 148.919 466.352 144.662L462.67 143.098ZM455.767 151.266C452.654 153.221 449.224 154.2 445.431 154.2V158.2C449.957 158.2 454.127 157.019 457.894 154.654L455.767 151.266ZM432.551 136.08V128.8H428.551V136.08H432.551ZM430.551 130.8H460.271V126.8H430.551V130.8ZM458.271 128.8V136.08H462.271V128.8H458.271ZM460.271 134.08H430.551V138.08H460.271V134.08ZM471.516 155H469.516V157H471.516V155ZM471.516 111.8V109.8H469.516V111.8H471.516ZM480.036 111.8H482.036V109.8H480.036V111.8ZM480.036 122.32L478.447 123.535L482.036 128.228V122.32H480.036ZM478.996 120.96L477.12 120.265L476.737 121.299L477.407 122.175L478.996 120.96ZM481.116 117.04L479.52 115.834L479.516 115.84L481.116 117.04ZM484.356 114.08L485.406 115.782L485.441 115.761L485.475 115.738L484.356 114.08ZM487.876 112.4L488.472 114.309L488.484 114.305L488.496 114.301L487.876 112.4ZM491.876 111.64L491.993 113.637L492.013 113.635L492.032 113.634L491.876 111.64ZM495.836 111.8H497.836V110.106L496.164 109.827L495.836 111.8ZM495.836 120.8L495.276 122.72L497.836 123.467V120.8H495.836ZM491.396 120.44L491.237 118.446L491.235 118.446L491.396 120.44ZM486.916 121.84L487.866 123.6L487.906 123.578L487.945 123.555L486.916 121.84ZM483.636 124.6L482.045 123.388L482.036 123.4L482.026 123.412L483.636 124.6ZM481.796 128.44L483.72 128.985L483.723 128.975L481.796 128.44ZM481.196 155V157H483.196V155H481.196ZM473.516 155V111.8H469.516V155H473.516ZM471.516 113.8H480.036V109.8H471.516V113.8ZM478.036 111.8V122.32H482.036V111.8H478.036ZM481.624 121.105L480.584 119.745L477.407 122.175L478.447 123.535L481.624 121.105ZM480.871 121.655C481.341 120.387 481.957 119.252 482.716 118.24L479.516 115.84C478.515 117.175 477.717 118.653 477.12 120.265L480.871 121.655ZM482.711 118.246C483.472 117.239 484.368 116.422 485.406 115.782L483.305 112.378C481.836 113.284 480.573 114.441 479.52 115.834L482.711 118.246ZM485.475 115.738C486.374 115.131 487.37 114.653 488.472 114.309L487.279 110.491C485.821 110.947 484.471 111.589 483.237 112.422L485.475 115.738ZM488.496 114.301C489.642 113.927 490.806 113.706 491.993 113.637L491.758 109.643C490.225 109.734 488.723 110.019 487.255 110.499L488.496 114.301ZM492.032 113.634C493.238 113.539 494.395 113.587 495.507 113.773L496.164 109.827C494.716 109.586 493.233 109.527 491.719 109.646L492.032 113.634ZM493.836 111.8V120.8H497.836V111.8H493.836ZM496.396 118.88C494.83 118.423 493.098 118.299 491.237 118.446L491.554 122.434C493.053 122.315 494.281 122.43 495.276 122.72L496.396 118.88ZM491.235 118.446C489.295 118.603 487.502 119.156 485.887 120.125L487.945 123.555C488.996 122.924 490.189 122.544 491.556 122.434L491.235 118.446ZM485.965 120.08C484.401 120.925 483.083 122.025 482.045 123.388L485.226 125.812C485.895 124.935 486.763 124.195 487.866 123.6L485.965 120.08ZM482.026 123.412C481.045 124.743 480.329 126.247 479.869 127.905L483.723 128.975C484.062 127.753 484.573 126.697 485.245 125.788L482.026 123.412ZM479.871 127.895C479.415 129.507 479.196 131.225 479.196 133.04H483.196C483.196 131.548 483.376 130.2 483.72 128.985L479.871 127.895ZM479.196 133.04V155H483.196V133.04H479.196ZM481.196 153H471.516V157H481.196V153ZM514.684 155H512.684V157H514.684V155ZM514.684 97.4V95.4H512.684V97.4H514.684ZM523.364 97.4L525.162 96.5225L524.614 95.4H523.364V97.4ZM543.284 138.2L541.487 139.077L543.284 142.759L545.082 139.077L543.284 138.2ZM563.204 97.4V95.4H561.955L561.407 96.5225L563.204 97.4ZM571.884 97.4H573.884V95.4H571.884V97.4ZM571.884 155V157H573.884V155H571.884ZM562.884 155H560.884V157H562.884V155ZM562.884 118.08H564.884L561.081 117.216L562.884 118.08ZM545.204 155V157H546.464L547.008 155.864L545.204 155ZM541.364 155L539.56 155.862L540.103 157H541.364V155ZM523.724 118.08L525.529 117.218L521.724 118.08H523.724ZM523.724 155V157H525.724V155H523.724ZM516.684 155V97.4H512.684V155H516.684ZM514.684 99.4H523.364V95.4H514.684V99.4ZM521.567 98.2775L541.487 139.077L545.082 137.323L525.162 96.5225L521.567 98.2775ZM545.082 139.077L565.002 98.2775L561.407 96.5225L541.487 137.323L545.082 139.077ZM563.204 99.4H571.884V95.4H563.204V99.4ZM569.884 97.4V155H573.884V97.4H569.884ZM571.884 153H562.884V157H571.884V153ZM564.884 155V118.08H560.884V155H564.884ZM561.081 117.216L543.401 154.136L547.008 155.864L564.688 118.944L561.081 117.216ZM545.204 153H541.364V157H545.204V153ZM543.169 154.138L525.529 117.218L521.92 118.942L539.56 155.862L543.169 154.138ZM521.724 118.08V155H525.724V118.08H521.724ZM523.724 153H514.684V157H523.724V153ZM584.882 154.44L583.911 156.188L583.919 156.193L583.927 156.197L584.882 154.44ZM579.962 149.68L578.212 150.649L578.217 150.658L578.223 150.667L579.962 149.68ZM579.362 137.56L581.206 138.333L581.211 138.323L579.362 137.56ZM582.562 133.24L583.842 134.776L583.851 134.77L583.859 134.762L582.562 133.24ZM588.162 130.24L587.547 128.337L587.535 128.341L587.523 128.345L588.162 130.24ZM594.242 128.72L593.863 126.756L593.858 126.757L594.242 128.72ZM601.842 127.48L602.114 129.461L602.122 129.46L602.13 129.459L601.842 127.48ZM610.442 126.2L611.432 127.938L610.142 124.223L610.442 126.2ZM607.002 128.16L605.002 128.142L604.971 131.619L607.992 129.898L607.002 128.16ZM605.002 121.56L603.561 122.947L603.561 122.947L605.002 121.56ZM592.482 120.8L593.376 122.589L593.376 122.589L592.482 120.8ZM588.682 125.48L588.083 127.388L589.972 127.981L590.584 126.099L588.682 125.48ZM579.882 122.72L577.962 122.159L577.413 124.042L579.283 124.628L579.882 122.72ZM585.962 113.92L584.778 112.308L584.771 112.313L585.962 113.92ZM608.242 112.48L607.45 114.317L607.456 114.319L608.242 112.48ZM614.762 118.64L612.97 119.528L612.974 119.537L612.979 119.547L614.762 118.64ZM616.162 123.32L614.172 123.519L614.172 123.522L616.162 123.32ZM616.402 155V157H618.402V155H616.402ZM607.962 155H605.962V157H607.962V155ZM607.962 145.64L609.433 144.285L605.962 140.516V145.64H607.962ZM609.362 147.16L611.059 148.219L611.865 146.926L610.833 145.805L609.362 147.16ZM602.522 154.04L603.495 155.787L603.501 155.784L602.522 154.04ZM600.322 147.36L601.216 149.149L601.216 149.149L600.322 147.36ZM604.002 144.52L602.465 143.24L602.456 143.251L602.447 143.262L604.002 144.52ZM605.882 141.36L604.033 140.596L604.004 140.669L603.979 140.743L605.882 141.36ZM606.722 137.16L604.724 137.06L604.724 137.076L604.723 137.092L606.722 137.16ZM606.842 133.28L607.412 131.363L604.842 130.599V133.28H606.842ZM609.802 134.16L610.11 136.136L610.372 132.243L609.802 134.16ZM602.322 135.36L601.993 133.387L601.993 133.387L602.322 135.36ZM596.962 136.36L597.347 138.322L597.364 138.319L597.381 138.316L596.962 136.36ZM593.002 137.36L592.383 135.458L592.356 135.467L592.329 135.477L593.002 137.36ZM588.362 140.6L586.659 139.552L586.644 139.576L586.63 139.601L588.362 140.6ZM588.562 145.88L586.881 146.964L586.889 146.977L586.898 146.989L588.562 145.88ZM590.882 147.8L590.026 149.607L590.035 149.612L590.044 149.616L590.882 147.8ZM592.802 154.2C589.928 154.2 587.635 153.659 585.837 152.683L583.927 156.197C586.449 157.567 589.436 158.2 592.802 158.2V154.2ZM585.853 152.692C583.985 151.654 582.624 150.319 581.701 148.693L578.223 150.667C579.54 152.988 581.459 154.826 583.911 156.188L585.853 152.692ZM581.711 148.711C580.791 147.05 580.322 145.213 580.322 143.16H576.322C576.322 145.854 576.946 148.364 578.212 150.649L581.711 148.711ZM580.322 143.16C580.322 141.304 580.631 139.706 581.206 138.333L577.517 136.787C576.706 138.721 576.322 140.856 576.322 143.16H580.322ZM581.211 138.323C581.776 136.953 582.644 135.775 583.842 134.776L581.282 131.704C579.6 133.105 578.334 134.807 577.513 136.797L581.211 138.323ZM583.859 134.762C585.059 133.74 586.684 132.849 588.801 132.135L587.523 128.345C585.053 129.178 582.944 130.287 581.265 131.718L583.859 134.762ZM588.777 132.143C590.416 131.614 592.362 131.125 594.625 130.683L593.858 126.757C591.482 127.222 589.375 127.746 587.547 128.337L588.777 132.143ZM594.621 130.684C596.928 130.238 599.425 129.831 602.114 129.461L601.57 125.499C598.819 125.876 596.25 126.295 593.863 126.756L594.621 130.684ZM602.13 129.459C604.881 129.058 607.752 128.631 610.742 128.177L610.142 124.223C607.159 124.675 604.296 125.102 601.554 125.501L602.13 129.459ZM609.452 124.462L606.012 126.422L607.992 129.898L611.432 127.938L609.452 124.462ZM609.002 128.178C609.031 124.936 608.317 122.12 606.443 120.173L603.561 122.947C604.407 123.826 605.026 125.411 605.002 128.142L609.002 128.178ZM606.443 120.173C604.524 118.179 601.557 117.44 598.122 117.44V121.44C601.14 121.44 602.76 122.115 603.561 122.947L606.443 120.173ZM598.122 117.44C595.852 117.44 593.667 117.972 591.587 119.011L593.376 122.589C594.924 121.815 596.499 121.44 598.122 121.44V117.44ZM591.587 119.011C589.223 120.193 587.639 122.221 586.78 124.861L590.584 126.099C591.165 124.313 592.114 123.22 593.376 122.589L591.587 119.011ZM589.28 123.572L580.48 120.812L579.283 124.628L588.083 127.388L589.28 123.572ZM581.802 123.281C582.749 120.035 584.526 117.474 587.153 115.527L584.771 112.313C581.425 114.793 579.148 118.098 577.962 122.159L581.802 123.281ZM587.146 115.532C589.711 113.648 593.303 112.6 598.122 112.6V108.6C592.754 108.6 588.239 109.766 584.778 112.308L587.146 115.532ZM598.122 112.6C601.746 112.6 604.841 113.191 607.45 114.317L609.034 110.643C605.83 109.262 602.178 108.6 598.122 108.6V112.6ZM607.456 114.319C609.952 115.386 611.768 117.102 612.97 119.528L616.554 117.752C614.929 114.471 612.398 112.081 609.028 110.641L607.456 114.319ZM612.979 119.547C613.647 120.859 614.038 122.18 614.172 123.519L618.152 123.121C617.966 121.26 617.423 119.461 616.544 117.733L612.979 119.547ZM614.172 123.522C614.324 125.018 614.402 126.669 614.402 128.48H618.402C618.402 126.557 618.32 124.769 618.152 123.118L614.172 123.522ZM614.402 128.48V155H618.402V128.48H614.402ZM616.402 153H607.962V157H616.402V153ZM609.962 155V145.64H605.962V155H609.962ZM606.491 146.995L607.891 148.515L610.833 145.805L609.433 144.285L606.491 146.995ZM607.665 146.101C605.856 149 603.804 151.027 601.543 152.296L603.501 155.784C606.467 154.12 608.974 151.56 611.059 148.219L607.665 146.101ZM601.549 152.293C599.339 153.523 596.459 154.2 592.802 154.2V158.2C596.932 158.2 600.531 157.437 603.495 155.787L601.549 152.293ZM594.722 150.52C597.139 150.52 599.328 150.093 601.216 149.149L599.427 145.571C598.222 146.174 596.678 146.52 594.722 146.52V150.52ZM601.216 149.149C602.968 148.273 604.438 147.16 605.556 145.778L602.447 143.262C601.753 144.12 600.769 144.9 599.427 145.571L601.216 149.149ZM605.538 145.8C606.574 144.558 607.361 143.283 607.784 141.977L603.979 140.743C603.763 141.41 603.297 142.242 602.465 143.24L605.538 145.8ZM607.73 142.124C608.344 140.639 608.661 138.997 608.721 137.228L604.723 137.092C604.676 138.47 604.433 139.628 604.033 140.596L607.73 142.124ZM608.719 137.26C608.8 135.644 608.842 134.314 608.842 133.28H604.842C604.842 134.219 604.804 135.476 604.724 137.06L608.719 137.26ZM606.272 135.197L609.232 136.077L610.372 132.243L607.412 131.363L606.272 135.197ZM609.494 132.184C606.583 132.638 604.082 133.039 601.993 133.387L602.651 137.333C604.722 136.988 607.208 136.589 610.11 136.136L609.494 132.184ZM601.993 133.387C599.893 133.737 598.075 134.076 596.543 134.404L597.381 138.316C598.836 138.004 600.59 137.676 602.651 137.333L601.993 133.387ZM596.576 134.398C595.023 134.703 593.623 135.055 592.383 135.458L593.621 139.262C594.674 138.919 595.914 138.604 597.347 138.322L596.576 134.398ZM592.329 135.477C591.087 135.92 589.975 136.459 589.026 137.114L591.297 140.406C591.895 139.994 592.677 139.6 593.675 139.243L592.329 135.477ZM589.026 137.114C588.059 137.781 587.252 138.588 586.659 139.552L590.065 141.648C590.325 141.225 590.718 140.806 591.297 140.406L589.026 137.114ZM586.63 139.601C586.027 140.645 585.762 141.815 585.762 143.04H589.762C589.762 142.399 589.897 141.942 590.094 141.599L586.63 139.601ZM585.762 143.04C585.762 144.458 586.122 145.787 586.881 146.964L590.242 144.796C589.935 144.32 589.762 143.756 589.762 143.04H585.762ZM586.898 146.989C587.664 148.138 588.74 148.998 590.026 149.607L591.738 145.993C590.997 145.642 590.527 145.222 590.226 144.771L586.898 146.989ZM590.044 149.616C591.418 150.25 593.003 150.52 594.722 150.52V146.52C593.401 146.52 592.426 146.31 591.72 145.984L590.044 149.616ZM625.216 105.24H623.216V107.24H625.216V105.24ZM625.216 96.4V94.4H623.216V96.4H625.216ZM634.856 96.4H636.856V94.4H634.856V96.4ZM634.856 105.24V107.24H636.856V105.24H634.856ZM625.216 155H623.216V157H625.216V155ZM625.216 111.8V109.8H623.216V111.8H625.216ZM634.856 111.8H636.856V109.8H634.856V111.8ZM634.856 155V157H636.856V155H634.856ZM627.216 105.24V96.4H623.216V105.24H627.216ZM625.216 98.4H634.856V94.4H625.216V98.4ZM632.856 96.4V105.24H636.856V96.4H632.856ZM634.856 103.24H625.216V107.24H634.856V103.24ZM627.216 155V111.8H623.216V155H627.216ZM625.216 113.8H634.856V109.8H625.216V113.8ZM632.856 111.8V155H636.856V111.8H632.856ZM634.856 153H625.216V157H634.856V153ZM648.118 152.6L646.949 154.223L646.949 154.223L648.118 152.6ZM642.038 142.48L641.732 140.503L639.734 140.812L640.064 142.807L642.038 142.48ZM651.878 140.96L653.823 140.498L653.397 138.702L651.572 138.983L651.878 140.96ZM655.238 146L654.082 147.633L654.082 147.633L655.238 146ZM667.158 146.48L668.33 148.1L668.336 148.096L667.158 146.48ZM668.358 140.32L666.749 141.509L666.778 141.548L666.81 141.586L668.358 140.32ZM665.318 138.56L665.988 136.676L665.988 136.676L665.318 138.56ZM658.078 136.44L657.566 138.373L657.57 138.375L658.078 136.44ZM649.438 133.36L648.508 135.131L648.517 135.135L648.525 135.14L649.438 133.36ZM644.838 129.4L646.542 128.353L646.542 128.353L644.838 129.4ZM645.558 116.84L647.191 117.994L647.191 117.994L645.558 116.84ZM651.478 112.24L652.254 114.083L652.262 114.08L652.27 114.076L651.478 112.24ZM669.358 112.16L668.611 114.016L668.618 114.018L669.358 112.16ZM675.678 116.6L674.141 117.88L674.141 117.88L675.678 116.6ZM678.638 123.36L678.99 125.329L680.893 124.988L680.617 123.074L678.638 123.36ZM668.798 125.12L666.814 125.379L667.086 127.458L669.15 127.089L668.798 125.12ZM666.278 120.76L665.073 122.356L665.08 122.362L665.087 122.367L666.278 120.76ZM660.598 118.96L660.48 120.957L660.485 120.957L660.598 118.96ZM655.118 120L656.117 121.732L656.129 121.725L656.142 121.718L655.118 120ZM657.238 127.28L656.578 129.168L656.587 129.171L657.238 127.28ZM664.838 129.44L665.333 127.502L665.33 127.502L664.838 129.44ZM673.078 132.48L672.102 134.226L672.116 134.234L672.129 134.241L673.078 132.48ZM677.558 136.52L675.825 137.519L675.831 137.53L675.837 137.54L677.558 136.52ZM674.198 152.48L672.966 150.904L672.96 150.909L674.198 152.48ZM661.118 154.2C656.079 154.2 652.19 153.068 649.286 150.977L646.949 154.223C650.712 156.932 655.49 158.2 661.118 158.2V154.2ZM649.286 150.977C646.415 148.91 644.651 146.02 644.011 142.153L640.064 142.807C640.864 147.633 643.153 151.49 646.949 154.223L649.286 150.977ZM642.343 144.457L652.183 142.937L651.572 138.983L641.732 140.503L642.343 144.457ZM649.932 141.422C650.547 144.012 651.938 146.115 654.082 147.633L656.393 144.367C655.071 143.432 654.222 142.175 653.823 140.498L649.932 141.422ZM654.082 147.633C656.228 149.151 658.845 149.84 661.798 149.84V145.84C659.47 145.84 657.714 145.302 656.393 144.367L654.082 147.633ZM661.798 149.84C664.339 149.84 666.603 149.349 668.33 148.1L665.985 144.86C665.205 145.424 663.896 145.84 661.798 145.84V149.84ZM668.336 148.096C670.138 146.782 671.078 144.911 671.078 142.68H667.078C667.078 143.649 666.737 144.312 665.979 144.864L668.336 148.096ZM671.078 142.68C671.078 141.373 670.756 140.093 669.905 139.054L666.81 141.586C666.919 141.72 667.078 142.014 667.078 142.68H671.078ZM669.966 139.131C669.124 137.992 667.584 137.244 665.988 136.676L664.647 140.444C665.363 140.699 665.888 140.938 666.255 141.151C666.437 141.256 666.562 141.345 666.646 141.413C666.731 141.482 666.755 141.516 666.749 141.509L669.966 139.131ZM665.988 136.676C664.331 136.086 661.85 135.362 658.585 134.505L657.57 138.375C660.812 139.225 663.157 139.914 664.647 140.444L665.988 136.676ZM658.589 134.507C655.033 133.565 652.305 132.582 650.35 131.58L648.525 135.14C650.837 136.324 653.869 137.395 657.566 138.373L658.589 134.507ZM650.367 131.589C648.445 130.58 647.232 129.477 646.542 128.353L643.133 130.447C644.31 132.363 646.164 133.9 648.508 135.131L650.367 131.589ZM646.542 128.353C645.839 127.209 645.438 125.749 645.438 123.88H641.438C641.438 126.331 641.969 128.551 643.133 130.447L646.542 128.353ZM645.438 123.88C645.438 121.557 646.04 119.623 647.191 117.994L643.924 115.686C642.248 118.057 641.438 120.817 641.438 123.88H645.438ZM647.191 117.994C648.363 116.336 650.021 115.023 652.254 114.083L650.701 110.397C647.867 111.59 645.579 113.344 643.924 115.686L647.191 117.994ZM652.27 114.076C654.5 113.114 657.205 112.6 660.438 112.6V108.6C656.79 108.6 653.522 109.179 650.685 110.404L652.27 114.076ZM660.438 112.6C663.593 112.6 666.305 113.088 668.611 114.016L670.104 110.304C667.236 109.152 664.002 108.6 660.438 108.6V112.6ZM668.618 114.018C670.961 114.951 672.78 116.247 674.141 117.88L677.214 115.32C675.375 113.113 672.981 111.449 670.097 110.302L668.618 114.018ZM674.141 117.88C675.493 119.503 676.335 121.408 676.658 123.646L680.617 123.074C680.193 120.139 679.062 117.537 677.214 115.32L674.141 117.88ZM678.285 121.391L668.445 123.151L669.15 127.089L678.99 125.329L678.285 121.391ZM670.781 124.861C670.473 122.504 669.361 120.555 667.468 119.153L665.087 122.367C666.074 123.098 666.642 124.056 666.814 125.379L670.781 124.861ZM667.482 119.164C665.661 117.789 663.346 117.111 660.71 116.963L660.485 120.957C662.595 121.075 664.067 121.598 665.073 122.356L667.482 119.164ZM660.715 116.963C658.205 116.816 655.938 117.183 654.093 118.282L656.142 121.718C657.071 121.164 658.457 120.838 660.48 120.957L660.715 116.963ZM654.118 118.268C652.181 119.385 651.038 121.142 651.038 123.4H655.038C655.038 122.724 655.281 122.215 656.117 121.732L654.118 118.268ZM651.038 123.4C651.038 124.73 651.508 125.934 652.431 126.901L655.324 124.139C655.127 123.932 655.038 123.723 655.038 123.4H651.038ZM652.431 126.901C653.348 127.861 654.875 128.573 656.578 129.168L657.897 125.392C656.24 124.813 655.527 124.352 655.324 124.139L652.431 126.901ZM656.587 129.171C658.374 129.785 660.971 130.521 664.345 131.378L665.33 127.502C661.984 126.652 659.515 125.948 657.888 125.389L656.587 129.171ZM664.342 131.378C667.69 132.234 670.256 133.195 672.102 134.226L674.053 130.734C671.793 129.472 668.865 128.406 665.333 127.502L664.342 131.378ZM672.129 134.241C673.979 135.237 675.152 136.351 675.825 137.519L679.29 135.521C678.15 133.543 676.336 131.963 674.026 130.719L672.129 134.241ZM675.837 137.54C676.55 138.742 676.958 140.279 676.958 142.24H680.958C680.958 139.721 680.431 137.444 679.278 135.5L675.837 137.54ZM676.958 142.24C676.958 146.027 675.612 148.836 672.966 150.904L675.429 154.056C679.13 151.164 680.958 147.146 680.958 142.24H676.958ZM672.96 150.909C670.281 153.02 666.415 154.2 661.118 154.2V158.2C666.967 158.2 671.821 156.9 675.436 154.051L672.96 150.909ZM699.879 97.4V95.4H698.342L697.946 96.8847L699.879 97.4ZM709.559 97.4L711.491 97.9153L712.162 95.4H709.559V97.4ZM694.199 155V157H695.735L696.131 155.515L694.199 155ZM684.519 155L682.586 154.485L681.916 157H684.519V155ZM699.879 99.4H709.559V95.4H699.879V99.4ZM707.626 96.8847L692.266 154.485L696.131 155.515L711.491 97.9153L707.626 96.8847ZM694.199 153H684.519V157H694.199V153ZM686.451 155.515L701.811 97.9153L697.946 96.8847L682.586 154.485L686.451 155.515ZM732.488 149L731.074 150.414L732.487 151.827L733.901 150.416L732.488 149ZM726.528 143.04L725.135 141.605L723.678 143.019L725.114 144.454L726.528 143.04ZM740.168 129.8L741.561 131.235L743.04 129.8L741.561 128.365L740.168 129.8ZM726.528 116.56L725.114 115.146L723.678 116.581L725.135 117.995L726.528 116.56ZM732.488 110.6L733.901 109.184L732.487 107.773L731.074 109.186L732.488 110.6ZM751.728 129.8L753.141 131.216L754.559 129.8L753.141 128.384L751.728 129.8ZM733.902 147.586L727.942 141.626L725.114 144.454L731.074 150.414L733.902 147.586ZM727.921 144.475L741.561 131.235L738.775 128.365L725.135 141.605L727.921 144.475ZM741.561 128.365L727.921 115.125L725.135 117.995L738.775 131.235L741.561 128.365ZM727.942 117.974L733.902 112.014L731.074 109.186L725.114 115.146L727.942 117.974ZM731.075 112.016L750.315 131.216L753.141 128.384L733.901 109.184L731.075 112.016ZM750.315 128.384L731.075 147.584L733.901 150.416L753.141 131.216L750.315 128.384Z" fill="#06A3FB"/>
</g>
<defs>
<filter id="filter0_d_326_85" x="2.3999" y="26.2" width="823.467" height="68" filterUnits="userSpaceOnUse" color-interpolation-filters="sRGB">
<feFlood flood-opacity="0" result="BackgroundImageFix"/>
<feColorMatrix in="SourceAlpha" type="matrix" values="0 0 0 0 0 0 0 0 0 0 0 0 0 0 0 0 0 0 127 0" result="hardAlpha"/>
<feOffset dy="4"/>
<feGaussianBlur stdDeviation="2"/>
<feComposite in2="hardAlpha" operator="out"/>
<feColorMatrix type="matrix" values="0 0 0 0 0 0 0 0 0 0 0 0 0 0 0 0 0 0 0.25 0"/>
<feBlend mode="normal" in2="BackgroundImageFix" result="effect1_dropShadow_326_85"/>
<feBlend mode="normal" in="SourceGraphic" in2="effect1_dropShadow_326_85" result="shape"/>
</filter>
<filter id="filter1_d_326_85" x="66.2" y="96.24" width="689.528" height="67.96" filterUnits="userSpaceOnUse" color-interpolation-filters="sRGB">
<feFlood flood-opacity="0" result="BackgroundImageFix"/>
<feColorMatrix in="SourceAlpha" type="matrix" values="0 0 0 0 0 0 0 0 0 0 0 0 0 0 0 0 0 0 127 0" result="hardAlpha"/>
<feOffset dy="4"/>
<feGaussianBlur stdDeviation="2"/>
<feComposite in2="hardAlpha" operator="out"/>
<feColorMatrix type="matrix" values="0 0 0 0 0 0 0 0 0 0 0 0 0 0 0 0 0 0 0.25 0"/>
<feBlend mode="normal" in2="BackgroundImageFix" result="effect1_dropShadow_326_85"/>
<feBlend mode="normal" in="SourceGraphic" in2="effect1_dropShadow_326_85" result="shape"/>
</filter>
</defs>
</svg>
