<?xml version="1.0" encoding="utf-8"?>
<svg id="Layer_1" data-name="Layer 1" viewBox="0 0 507.86 773.23" xmlns="http://www.w3.org/2000/svg">
  <defs>
    <style>.cls-1{fill:#e44d26;}.cls-2{fill:#f16529;}.cls-3{fill:#ebebeb;}.cls-4{fill:#fff;}</style>
  </defs>
  <polygon class="cls-1" points="46.22 709.33 0 134.03 507.86 134.03 461.6 709.24 253.62 773.23 46.22 709.33"/>
  <polygon class="cls-2" points="253.93 724.32 421.99 672.61 461.52 181.07 253.93 181.07 253.93 724.32"/>
  <polygon class="cls-3" points="253.93 394.44 169.8 394.44 163.99 322.19 253.93 322.19 253.93 251.63 253.71 251.63 94.5 251.63 96.03 270.56 111.65 465 253.93 465 253.93 394.44"/>
  <polygon class="cls-3" points="253.93 577.69 253.65 577.77 182.84 556.55 178.32 500.28 143.91 500.28 114.49 500.28 123.4 611.07 253.64 651.19 253.93 651.1 253.93 577.69"/>
  <path class="cls-4" d="M 12.39 8 L 50.019 8 L 50.019 46.994 L 84.406 46.994 L 84.406 8 L 122.035 8 L 122.035 126.084 L 84.406 126.084 L 84.406 86.544 L 49.98 86.544 L 49.98 126.084 L 12.399 126.084 L 12.399 8 L 12.39 8 Z" style="stroke: rgb(255, 94, 0); vector-effect: non-scaling-stroke; stroke-width: 5px;"/>
  <path class="cls-4" d="M 171.337 47.161 L 138.292 47.161 L 138.292 8 L 242.08 8 L 242.08 47.161 L 208.966 47.161 L 208.966 126.074 L 171.337 126.074 L 171.337 47.161 Z" style="stroke: rgb(255, 94, 0); vector-effect: non-scaling-stroke; stroke-width: 5px;"/>
  <path class="cls-4" d="M 258.55 8 L 297.732 8 L 321.852 49.497 L 345.974 8 L 385.175 8 L 385.175 126.084 L 347.71 126.084 L 347.71 67.552 L 321.852 109.545 L 321.206 109.545 L 295.329 67.552 L 295.329 126.084 L 258.55 126.084 L 258.55 8 Z" style="stroke: rgb(255, 94, 0); vector-effect: non-scaling-stroke; stroke-width: 5px;"/>
  <path class="cls-4" d="M 403.863 8 L 441.492 8 L 441.492 87.049 L 494.356 87.049 L 494.356 126.084 L 403.863 126.084 L 403.863 8 Z" style="stroke: rgb(255, 94, 0); vector-effect: non-scaling-stroke; stroke-width: 5px;"/>
  <polygon class="cls-4" points="253.71 394.44 253.71 465 332 465 324.62 556.51 253.71 577.75 253.71 651.15 384.05 611.07 385.01 599.14 399.95 413.39 401.5 394.44 384.37 394.44 253.71 394.44"/>
  <polygon class="cls-4" points="253.71 251.63 253.71 295.45 253.71 322.02 253.71 322.19 407.08 322.19 407.08 322.19 407.29 322.19 408.56 306.33 411.46 270.56 412.98 251.63 253.71 251.63"/>
</svg>